<svg width="275" height="53" viewBox="0 0 275 53" fill="none" xmlns="http://www.w3.org/2000/svg">
<path d="M44.0638 48L51.7438 49.68V52H37.9038L35.3438 37.6C34.8104 34.5067 33.8504 32.3467 32.4638 31.12C31.0771 29.8933 28.9171 29.28 25.9838 29.28H12.9438V24.88H29.4238C32.4104 23.4933 34.5971 21.9467 35.9838 20.24C37.3704 18.48 38.0638 16.4267 38.0638 14.08C38.0638 11.0933 37.1038 8.74666 35.1838 7.04C33.2638 5.33333 30.6238 4.48 27.2638 4.48H15.7438V48.16L24.3038 49.68V52H0.38375V49.92C1.23708 49.4933 2.35708 49.12 3.74375 48.8C5.18375 48.48 6.91708 48.24 8.94375 48.08L9.66375 4.16L0.38375 2.4V0.16H28.4638C33.3704 0.16 37.2904 1.33333 40.2238 3.68C43.1571 5.97333 44.6238 9.01333 44.6238 12.8C44.6238 16.0533 43.5571 18.96 41.4237 21.52C39.2904 24.08 36.4904 25.8667 33.0238 26.88C35.5304 27.4667 37.5038 28.64 38.9438 30.4C40.3838 32.1067 41.3971 34.5333 41.9838 37.68L44.0638 48ZM70.8444 52.64C67.591 52.64 64.7377 51.84 62.2844 50.24C59.8844 48.64 57.991 46.3733 56.6044 43.44C55.271 40.5067 54.6044 37.12 54.6044 33.28C54.6044 29.28 55.3244 25.7333 56.7644 22.64C58.2044 19.5467 60.2044 17.12 62.7644 15.36C65.3777 13.6 68.4177 12.72 71.8844 12.72C74.711 12.72 77.1644 13.3333 79.2444 14.56C81.3244 15.7333 82.951 17.3867 84.1244 19.52C85.351 21.6533 85.9377 24.16 85.8844 27.04L85.6444 32.16C82.6577 32.64 79.7777 33.04 77.0044 33.36C74.231 33.6267 71.3244 33.8667 68.2844 34.08C65.2977 34.24 61.911 34.3467 58.1244 34.4V30.64L80.1244 30.4L80.2844 26.88C80.2844 23.9467 79.4577 21.6 77.8044 19.84C76.151 18.0267 73.9377 17.12 71.1644 17.12C69.991 17.12 68.7644 17.3333 67.4844 17.76C66.2044 18.1333 64.9777 18.6667 63.8044 19.36C62.7377 21.28 61.8844 23.36 61.2444 25.6C60.6577 27.84 60.3644 30.08 60.3644 32.32C60.3644 37.2267 61.5377 41.0133 63.8844 43.68C66.2844 46.3467 69.511 47.68 73.5644 47.68C77.1377 47.68 81.0844 46.64 85.4044 44.56L85.8844 45.76C83.6444 48.0533 81.2444 49.7867 78.6844 50.96C76.1244 52.08 73.511 52.64 70.8444 52.64ZM105.931 52.56C104.118 52.56 102.171 52.4 100.091 52.08C98.0646 51.8133 95.9579 51.36 93.7713 50.72L96.1713 46C98.6246 46.64 100.998 47.1467 103.291 47.52C105.585 47.8933 107.851 48.08 110.091 48.08C110.945 48.08 111.771 48.0533 112.571 48C113.425 47.8933 114.278 47.7867 115.131 47.68L112.491 48.96C113.611 48.4267 114.571 47.6267 115.371 46.56C116.225 45.4933 116.651 44.3733 116.651 43.2C116.651 41.92 116.118 40.8267 115.051 39.92C113.985 39.0133 112.598 38.16 110.891 37.36C109.238 36.56 107.478 35.7333 105.611 34.88C103.745 34.0267 101.958 33.0933 100.251 32.08C98.5979 31.0133 97.2379 29.76 96.1713 28.32C95.1046 26.8267 94.5713 25.0667 94.5713 23.04C94.5713 19.7867 96.0113 17.2533 98.8913 15.44C101.771 13.6267 105.531 12.72 110.171 12.72C111.771 12.72 113.478 12.8267 115.291 13.04C117.105 13.2533 118.971 13.6 120.891 14.08L119.211 19.12C116.918 18.48 114.705 18 112.571 17.68C110.438 17.36 108.411 17.2 106.491 17.2C105.691 17.2 104.865 17.2267 104.011 17.28C103.211 17.3333 102.358 17.4133 101.451 17.52L103.451 16.64C102.331 17.1733 101.505 17.92 100.971 18.88C100.491 19.84 100.251 20.8267 100.251 21.84C100.251 23.1733 100.785 24.3467 101.851 25.36C102.918 26.3733 104.278 27.28 105.931 28.08C107.638 28.88 109.425 29.7067 111.291 30.56C113.158 31.36 114.918 32.2933 116.571 33.36C118.278 34.3733 119.665 35.5733 120.731 36.96C121.798 38.3467 122.331 40.0267 122.331 42C122.331 45.3067 120.811 47.8933 117.771 49.76C114.731 51.6267 110.785 52.56 105.931 52.56ZM93.7713 50.72L94.0913 38.88H96.6513L99.9313 50.64L93.7713 50.72ZM118.171 25.2L114.731 14.08H120.891L120.731 25.2H118.171ZM162.492 46.96L170.332 46.56C170.065 47.84 169.585 48.9333 168.892 49.84C168.199 50.6933 167.399 51.36 166.492 51.84C165.639 52.2667 164.732 52.48 163.772 52.48C162.652 52.48 161.559 52.1867 160.492 51.6C159.425 50.96 158.492 50.0533 157.692 48.88C156.945 47.7067 156.439 46.2667 156.172 44.56L156.812 21.04L152.732 15.92C155.879 14.1067 159.132 12.9867 162.492 12.56V46.96ZM146.812 52.56C146.439 52.6133 146.092 52.64 145.772 52.64C145.505 52.64 145.239 52.64 144.972 52.64C142.465 52.64 140.172 52.1333 138.092 51.12C136.012 50.0533 134.065 48.4267 132.252 46.24L137.692 43.28C140.679 45.8933 143.825 47.2 147.132 47.2C150.332 47.2 153.532 45.9467 156.732 43.44L156.892 44.96C155.399 46.72 153.799 48.2133 152.092 49.44C150.439 50.6667 148.679 51.7067 146.812 52.56ZM132.252 46.24L132.972 21.04L128.892 15.92C132.092 14.1067 135.319 12.9867 138.572 12.56V45.2L132.252 46.24ZM172.701 52V50.16C173.448 49.84 174.248 49.52 175.101 49.2C175.955 48.88 177.021 48.6133 178.301 48.4L179.021 21.04L174.941 15.92C177.768 14.16 180.808 13.04 184.061 12.56L184.701 20.4V48.56L190.621 50.08V52H172.701ZM196.621 52V50.16C197.368 49.7867 198.168 49.4667 199.021 49.2C199.875 48.88 200.915 48.6133 202.141 48.4L202.941 21.76L208.861 19.6L208.541 20.64V48.56L214.541 50.08V52H196.621ZM202.941 21.76C200.168 19.36 197.181 18.16 193.981 18.16C190.675 18.16 187.395 19.44 184.141 22L184.061 20.4C185.608 18.6933 187.208 17.2267 188.861 16C190.515 14.7733 192.275 13.7067 194.141 12.8C194.461 12.8 194.781 12.8 195.101 12.8C195.421 12.7467 195.715 12.72 195.981 12.72C198.541 12.72 200.888 13.28 203.021 14.4C205.155 15.4667 207.101 17.2 208.861 19.6L202.941 21.76ZM220.541 52V50.16C221.235 49.7867 222.008 49.4667 222.861 49.2C223.768 48.88 224.835 48.6133 226.061 48.4L226.861 21.76L232.461 19.04V48.56L238.461 50.08V52H220.541ZM226.861 21.76C224.088 19.36 221.075 18.16 217.821 18.16C214.568 18.16 211.315 19.44 208.061 22L207.981 20.4C209.475 18.6933 211.048 17.2267 212.701 16C214.408 14.7733 216.195 13.7067 218.061 12.8C218.381 12.8 218.675 12.8 218.941 12.8C219.261 12.7467 219.555 12.72 219.821 12.72C222.328 12.72 224.621 13.2267 226.701 14.24C228.781 15.2533 230.701 16.8533 232.461 19.04L226.861 21.76ZM258.969 52.64C255.716 52.64 252.863 51.84 250.409 50.24C248.009 48.64 246.116 46.3733 244.729 43.44C243.396 40.5067 242.729 37.12 242.729 33.28C242.729 29.28 243.449 25.7333 244.889 22.64C246.329 19.5467 248.329 17.12 250.889 15.36C253.503 13.6 256.543 12.72 260.009 12.72C262.836 12.72 265.289 13.3333 267.369 14.56C269.449 15.7333 271.076 17.3867 272.249 19.52C273.476 21.6533 274.063 24.16 274.009 27.04L273.769 32.16C270.783 32.64 267.903 33.04 265.129 33.36C262.356 33.6267 259.449 33.8667 256.409 34.08C253.423 34.24 250.036 34.3467 246.249 34.4V30.64L268.249 30.4L268.409 26.88C268.409 23.9467 267.583 21.6 265.929 19.84C264.276 18.0267 262.063 17.12 259.289 17.12C258.116 17.12 256.889 17.3333 255.609 17.76C254.329 18.1333 253.103 18.6667 251.929 19.36C250.863 21.28 250.009 23.36 249.369 25.6C248.783 27.84 248.489 30.08 248.489 32.32C248.489 37.2267 249.663 41.0133 252.009 43.68C254.409 46.3467 257.636 47.68 261.689 47.68C265.263 47.68 269.209 46.64 273.529 44.56L274.009 45.76C271.769 48.0533 269.369 49.7867 266.809 50.96C264.249 52.08 261.636 52.64 258.969 52.64Z" fill="black"/>
</svg>
