<svg width="697" height="204" viewBox="0 0 697 204" fill="none" xmlns="http://www.w3.org/2000/svg">
<path d="M101.029 89V87.08C102.469 86.6 103.882 86.2 105.269 85.88C106.655 85.5067 108.015 85.24 109.349 85.08L110.069 41.16L101.029 39.4V37.16H124.709V39.16C123.429 39.5867 122.069 39.96 120.629 40.28C119.189 40.6 117.695 40.84 116.149 41V85.16L124.709 86.68V89H101.029ZM67.3488 89V86.92C68.8421 86.44 70.2821 86.0667 71.6688 85.8C73.1088 85.48 74.5221 85.24 75.9088 85.08L76.6288 41.16L67.3488 39.4V37.16H91.1088V39.16C89.8288 39.5867 88.4688 39.96 87.0288 40.28C85.6421 40.6 84.2021 40.84 82.7088 41V85.16L91.1088 86.68V89H67.3488ZM79.5888 64.68V60.36H113.029V64.68H79.5888ZM129.748 89V87.16C130.601 86.7867 131.481 86.44 132.388 86.12C133.295 85.8 134.281 85.56 135.348 85.4L136.068 58.04L131.988 52.92C133.428 52.0133 134.948 51.2933 136.548 50.76C138.201 50.1733 139.935 49.7733 141.748 49.56V85.56L147.668 87.08V89H129.748ZM139.668 32.84C140.521 33.5867 141.241 34.4933 141.828 35.56C142.415 36.5733 142.761 37.5867 142.868 38.6C142.228 39.4533 141.375 40.1733 140.308 40.76C139.295 41.3467 138.255 41.6933 137.188 41.8C136.388 41.16 135.695 40.3333 135.108 39.32C134.521 38.2533 134.095 37.1867 133.828 36.12C134.575 35.32 135.455 34.6267 136.468 34.04C137.535 33.4 138.601 33 139.668 32.84ZM155.876 96.68L157.876 85.48L164.196 85.72C163.45 87.64 162.57 89.5333 161.556 91.4C160.596 93.2667 159.45 95.16 158.116 97.08L155.876 96.68ZM158.516 88.92L155.716 83.56C156.623 82.76 157.53 82.12 158.436 81.64C159.343 81.16 160.33 80.7867 161.396 80.52C162.09 81.2133 162.65 81.9867 163.076 82.84C163.556 83.64 163.93 84.6 164.196 85.72L158.516 88.92ZM184.931 89V86.92C186.424 86.44 187.864 86.0667 189.251 85.8C190.691 85.48 192.104 85.24 193.491 85.08L194.211 41.16L184.931 39.4V37.16H208.851V39.16C207.571 39.5867 206.211 39.96 204.771 40.28C203.331 40.6 201.837 40.84 200.291 41V85.16L208.851 86.68V89H184.931ZM217.251 50.92L219.251 39.72L225.571 39.96C224.824 41.88 223.944 43.7733 222.931 45.64C221.971 47.5067 220.824 49.4 219.491 51.32L217.251 50.92ZM219.891 43.16L217.091 37.8C217.997 37 218.904 36.36 219.811 35.88C220.717 35.4 221.704 35.0267 222.771 34.76C223.464 35.4533 224.024 36.2267 224.451 37.08C224.931 37.88 225.304 38.84 225.571 39.96L219.891 43.16ZM229.514 89V87.16C230.26 86.84 231.06 86.52 231.914 86.2C232.767 85.88 233.834 85.6133 235.114 85.4L235.834 58.04L231.754 52.92C234.58 51.16 237.62 50.04 240.874 49.56L241.514 57.4V85.56L247.434 87.08V89H229.514ZM253.434 89V87.16C254.18 86.7867 254.98 86.4667 255.834 86.2C256.687 85.88 257.727 85.6133 258.954 85.4L259.754 58.76L265.674 56.6L265.354 57.64V85.56L271.354 87.08V89H253.434ZM259.754 58.76C256.98 56.36 253.994 55.16 250.794 55.16C247.487 55.16 244.207 56.44 240.954 59L240.874 57.4C242.42 55.6933 244.02 54.2267 245.674 53C247.327 51.7733 249.087 50.7067 250.954 49.8C251.274 49.8 251.594 49.8 251.914 49.8C252.234 49.7467 252.527 49.72 252.794 49.72C255.354 49.72 257.7 50.28 259.834 51.4C261.967 52.4667 263.914 54.2 265.674 56.6L259.754 58.76ZM277.354 89V87.16C278.047 86.7867 278.82 86.4667 279.674 86.2C280.58 85.88 281.647 85.6133 282.874 85.4L283.674 58.76L289.274 56.04V85.56L295.274 87.08V89H277.354ZM283.674 58.76C280.9 56.36 277.887 55.16 274.634 55.16C271.38 55.16 268.127 56.44 264.874 59L264.794 57.4C266.287 55.6933 267.86 54.2267 269.514 53C271.22 51.7733 273.007 50.7067 274.874 49.8C275.194 49.8 275.487 49.8 275.754 49.8C276.074 49.7467 276.367 49.72 276.634 49.72C279.14 49.72 281.434 50.2267 283.514 51.24C285.594 52.2533 287.514 53.8533 289.274 56.04L283.674 58.76ZM373.088 85.16L381.968 86.68V89H357.728V86.92C359.221 86.44 360.688 86.0667 362.128 85.8C363.568 85.48 365.008 85.24 366.448 85.08V39.8L367.248 39.96L347.168 89H343.968L324.928 40.68L325.808 40.52L325.088 85.16L334.928 86.68V89H311.327V86.92C312.874 86.44 314.368 86.0667 315.808 85.8C317.248 85.48 318.661 85.24 320.048 85.08L321.648 41.16L312.048 39.4V37.16H329.888L347.088 81.08H345.408L363.568 37.16H381.248V39.16C379.914 39.5867 378.501 39.96 377.008 40.28C375.568 40.6 374.048 40.84 372.448 41L373.088 85.16ZM404.543 89.72C401.183 89.72 398.25 88.92 395.743 87.32C393.236 85.6667 391.29 83.4 389.903 80.52C388.516 77.5867 387.823 74.2 387.823 70.36C387.823 66.2533 388.543 62.6533 389.983 59.56C391.476 56.4667 393.53 54.0667 396.143 52.36C398.81 50.6 401.876 49.72 405.343 49.72C408.756 49.72 411.716 50.5467 414.223 52.2C416.783 53.8 418.756 56.0667 420.143 59C421.583 61.88 422.303 65.24 422.303 69.08C422.303 73.1867 421.556 76.7867 420.063 79.88C418.57 82.9733 416.49 85.4 413.823 87.16C411.156 88.8667 408.063 89.72 404.543 89.72ZM404.943 85.56C407.183 85.56 409.13 84.9467 410.783 83.72C412.436 82.44 413.716 80.6 414.623 78.2C415.583 75.7467 416.063 72.84 416.063 69.48C416.063 66.2267 415.61 63.48 414.703 61.24C413.796 58.9467 412.49 57.1867 410.783 55.96C409.13 54.7333 407.13 54.12 404.783 54.12C403.343 54.12 401.796 54.3867 400.143 54.92C398.49 55.4533 396.676 56.2267 394.703 57.24L398.063 54.76C396.73 57.1067 395.716 59.5333 395.023 62.04C394.383 64.4933 394.063 67.1067 394.063 69.88C394.063 73.1333 394.516 75.9333 395.423 78.28C396.383 80.6267 397.663 82.44 399.263 83.72C400.916 84.9467 402.81 85.56 404.943 85.56ZM427.17 89V87.16C427.917 86.84 428.717 86.52 429.57 86.2C430.423 85.88 431.49 85.6133 432.77 85.4L433.49 58.04L429.41 52.92C432.237 51.16 435.277 50.04 438.53 49.56L439.17 57.4V85.56L445.09 87.08V89H427.17ZM451.09 89V87.16C451.837 86.7867 452.637 86.4667 453.49 86.2C454.343 85.88 455.383 85.6133 456.61 85.4L457.41 58.76L463.01 56.04V85.56L469.01 87.08V89H451.09ZM438.61 59L438.53 57.4C440.077 55.6933 441.677 54.2267 443.33 53C444.983 51.7733 446.743 50.7067 448.61 49.8C448.93 49.8 449.25 49.8 449.57 49.8C449.89 49.7467 450.183 49.72 450.45 49.72C452.903 49.72 455.17 50.2267 457.25 51.24C459.33 52.2533 461.25 53.8533 463.01 56.04L457.41 58.76C454.637 56.36 451.65 55.16 448.45 55.16C445.143 55.16 441.863 56.44 438.61 59ZM472.014 89V87.16C472.867 86.7867 473.747 86.44 474.654 86.12C475.56 85.8 476.547 85.56 477.614 85.4L478.334 58.04L474.254 52.92C475.694 52.0133 477.214 51.2933 478.814 50.76C480.467 50.1733 482.2 49.7733 484.014 49.56V85.56L489.934 87.08V89H472.014ZM481.934 32.84C482.787 33.5867 483.507 34.4933 484.094 35.56C484.68 36.5733 485.027 37.5867 485.134 38.6C484.494 39.4533 483.64 40.1733 482.574 40.76C481.56 41.3467 480.52 41.6933 479.454 41.8C478.654 41.16 477.96 40.3333 477.374 39.32C476.787 38.2533 476.36 37.1867 476.094 36.12C476.84 35.32 477.72 34.6267 478.734 34.04C479.8 33.4 480.867 33 481.934 32.84ZM507.822 89.56C506.009 89.56 504.062 89.4 501.982 89.08C499.955 88.8133 497.849 88.36 495.662 87.72L498.062 83C500.515 83.64 502.889 84.1467 505.182 84.52C507.475 84.8933 509.742 85.08 511.982 85.08C512.835 85.08 513.662 85.0533 514.462 85C515.315 84.8933 516.169 84.7867 517.022 84.68L514.382 85.96C515.502 85.4267 516.462 84.6267 517.262 83.56C518.115 82.4933 518.542 81.3733 518.542 80.2C518.542 78.92 518.009 77.8267 516.942 76.92C515.875 76.0133 514.489 75.16 512.782 74.36C511.129 73.56 509.369 72.7333 507.502 71.88C505.635 71.0267 503.849 70.0933 502.142 69.08C500.489 68.0133 499.129 66.76 498.062 65.32C496.995 63.8267 496.462 62.0667 496.462 60.04C496.462 56.7867 497.902 54.2533 500.782 52.44C503.662 50.6267 507.422 49.72 512.062 49.72C513.662 49.72 515.369 49.8267 517.182 50.04C518.995 50.2533 520.862 50.6 522.782 51.08L521.102 56.12C518.809 55.48 516.595 55 514.462 54.68C512.329 54.36 510.302 54.2 508.382 54.2C507.582 54.2 506.755 54.2267 505.902 54.28C505.102 54.3333 504.249 54.4133 503.342 54.52L505.342 53.64C504.222 54.1733 503.395 54.92 502.862 55.88C502.382 56.84 502.142 57.8267 502.142 58.84C502.142 60.1733 502.675 61.3467 503.742 62.36C504.809 63.3733 506.169 64.28 507.822 65.08C509.529 65.88 511.315 66.7067 513.182 67.56C515.049 68.36 516.809 69.2933 518.462 70.36C520.169 71.3733 521.555 72.5733 522.622 73.96C523.689 75.3467 524.222 77.0267 524.222 79C524.222 82.3067 522.702 84.8933 519.662 86.76C516.622 88.6267 512.675 89.56 507.822 89.56ZM495.662 87.72L495.982 75.88H498.542L501.822 87.64L495.662 87.72ZM520.062 62.2L516.622 51.08H522.782L522.622 62.2H520.062ZM529.663 89V87.16C530.409 86.84 531.209 86.52 532.063 86.2C532.969 85.88 534.036 85.6133 535.263 85.4L536.143 38.68L531.903 33.24C533.343 32.3333 534.863 31.6133 536.463 31.08C538.116 30.4933 539.849 30.0933 541.663 29.88V85.56L547.583 87.08V89H529.663ZM553.583 89V87.16C554.329 86.7867 555.129 86.4667 555.983 86.2C556.836 85.88 557.876 85.6133 559.103 85.4L559.903 58.76L565.503 56.04V85.56L571.503 87.08V89H553.583ZM541.103 59L541.023 57.4C542.569 55.6933 544.169 54.2267 545.823 53C547.476 51.7733 549.236 50.7067 551.103 49.8C551.423 49.8 551.743 49.8 552.063 49.8C552.383 49.7467 552.676 49.72 552.943 49.72C555.396 49.72 557.663 50.2267 559.743 51.24C561.823 52.2533 563.743 53.8533 565.503 56.04L559.903 58.76C557.129 56.36 554.143 55.16 550.943 55.16C547.689 55.16 544.409 56.44 541.103 59ZM605.634 89.48C604.034 89.48 602.514 88.8667 601.074 87.64C599.687 86.4133 598.754 84.6267 598.274 82.28L599.074 58.2C595.607 55.3733 591.314 53.96 586.194 53.96C585.18 53.96 584.167 54.04 583.154 54.2C582.14 54.3067 581.18 54.4933 580.274 54.76L583.634 53L582.194 64.28C580.487 63.96 579.18 63.3467 578.274 62.44C577.367 61.5333 576.914 60.4133 576.914 59.08C576.914 57.3733 577.527 55.8 578.754 54.36C579.98 52.92 581.634 51.8 583.714 51C585.847 50.1467 588.167 49.72 590.674 49.72C593.5 49.72 596.087 50.28 598.434 51.4C600.834 52.4667 602.94 54.0133 604.754 56.04V83.72L612.594 83.32C612.327 84.6 611.847 85.72 611.154 86.68C610.46 87.5867 609.634 88.28 608.674 88.76C607.714 89.24 606.7 89.48 605.634 89.48ZM587.874 89.8C584.3 89.7467 581.42 88.76 579.234 86.84C577.047 84.92 575.954 82.4133 575.954 79.32C575.954 77.8267 576.274 76.52 576.914 75.4C577.607 74.28 578.834 73.2667 580.594 72.36C582.354 71.4 584.834 70.44 588.034 69.48C591.234 68.52 595.34 67.4533 600.354 66.28V69.96L581.314 73.72L583.314 72.68C583.047 73.5333 582.834 74.4133 582.674 75.32C582.567 76.1733 582.514 76.9733 582.514 77.72C582.514 79.9067 583.047 81.6133 584.114 82.84C585.18 84.0133 586.807 84.6 588.994 84.6C590.54 84.6 592.194 84.28 593.954 83.64C595.767 83 597.66 81.9867 599.634 80.6V81.88C597.927 83.64 596.14 85.1867 594.274 86.52C592.407 87.8 590.274 88.8933 587.874 89.8ZM626.592 36.68L626.512 45.72L624.672 73.16H621.232L620.432 45.72L620.672 36.68C621.205 36.5733 621.712 36.52 622.192 36.52C622.672 36.4667 623.152 36.44 623.632 36.44C624.165 36.44 624.672 36.4667 625.152 36.52C625.632 36.52 626.112 36.5733 626.592 36.68ZM623.712 80.6C624.459 81.24 625.099 82.04 625.632 83C626.165 83.9067 626.565 84.92 626.832 86.04C626.139 86.7867 625.285 87.4533 624.272 88.04C623.312 88.5733 622.325 88.9467 621.312 89.16C620.512 88.36 619.845 87.48 619.312 86.52C618.779 85.56 618.432 84.6 618.272 83.64C618.965 82.84 619.792 82.1733 620.752 81.64C621.712 81.1067 622.699 80.76 623.712 80.6Z" fill="black"/>
<path d="M20.0975 154L14.0675 134.89H15.9575L21.6275 153.07H21.1775L26.9975 134.89H28.6775L22.2875 154H20.0975ZM8.57746 154L2.36746 134.89H4.52746L10.1075 153.07H9.68746L15.0575 136.24L16.0775 137.77L10.7675 154H8.57746ZM3.95746 136.06C3.39746 135.98 2.83746 135.87 2.27746 135.73C1.73746 135.59 1.19746 135.42 0.657461 135.22V134.59H8.00746V135.25L3.95746 136.06ZM15.5975 136.06C14.9775 135.98 14.3575 135.87 13.7375 135.73C13.1375 135.59 12.5175 135.42 11.8775 135.22V134.59H19.2575V135.25L15.5975 136.06ZM27.8375 136.06C27.0575 135.98 26.2775 135.87 25.4975 135.73C24.7175 135.59 23.9375 135.42 23.1575 135.22V134.59H30.3575V135.25L27.8375 136.06ZM35.6496 154.21C34.4696 154.21 33.4196 153.91 32.4996 153.31C31.5996 152.71 30.8996 151.87 30.3996 150.79C29.8996 149.69 29.6496 148.43 29.6496 147.01C29.6496 145.53 29.9096 144.21 30.4296 143.05C30.9696 141.89 31.7196 140.98 32.6796 140.32C33.6396 139.66 34.7496 139.33 36.0096 139.33C37.0296 139.33 37.9196 139.56 38.6796 140.02C39.4596 140.46 40.0596 141.07 40.4796 141.85C40.9196 142.63 41.1396 143.54 41.1396 144.58L41.0496 146.5C39.9696 146.68 38.9096 146.83 37.8696 146.95C36.8496 147.05 35.7696 147.13 34.6296 147.19C33.4896 147.23 32.1796 147.26 30.6996 147.28L30.7296 146.05L39.3396 145.96L39.3996 144.58C39.3996 143.44 39.0696 142.52 38.4096 141.82C37.7496 141.1 36.8796 140.74 35.7996 140.74C35.3196 140.74 34.8196 140.82 34.2996 140.98C33.7796 141.14 33.2896 141.36 32.8296 141.64C32.3896 142.4 32.0496 143.22 31.8096 144.1C31.5696 144.96 31.4496 145.83 31.4496 146.71C31.4496 148.61 31.8996 150.07 32.7996 151.09C33.7196 152.11 34.9496 152.62 36.4896 152.62C37.8496 152.62 39.3396 152.23 40.9596 151.45L41.1096 151.81C40.2896 152.61 39.4096 153.21 38.4696 153.61C37.5496 154.01 36.6096 154.21 35.6496 154.21ZM43.1993 154V153.46C43.4993 153.32 43.8193 153.2 44.1593 153.1C44.4993 152.98 44.9193 152.88 45.4193 152.8L45.7193 134.89L44.1593 133.03C44.6593 132.73 45.1693 132.49 45.6893 132.31C46.2293 132.11 46.7893 131.97 47.3693 131.89V152.86L49.7393 153.46V154H43.1993ZM57.4723 154.21C56.3323 154.21 55.3223 153.9 54.4423 153.28C53.5623 152.66 52.8723 151.8 52.3723 150.7C51.8723 149.6 51.6223 148.33 51.6223 146.89C51.6223 145.35 51.9023 144.01 52.4623 142.87C53.0423 141.73 53.8323 140.86 54.8323 140.26C55.8323 139.64 56.9623 139.33 58.2223 139.33C58.8423 139.33 59.4623 139.4 60.0823 139.54C60.7223 139.68 61.3323 139.89 61.9123 140.17L61.5523 141.67C60.3923 141.09 59.1223 140.8 57.7423 140.8C57.1223 140.8 56.5123 140.89 55.9123 141.07C55.3323 141.25 54.7723 141.5 54.2323 141.82L55.0423 141.13C54.5623 141.91 54.1823 142.78 53.9023 143.74C53.6423 144.7 53.5123 145.67 53.5123 146.65C53.5123 147.89 53.7223 148.96 54.1423 149.86C54.5623 150.74 55.1423 151.42 55.8823 151.9C56.6223 152.38 57.4623 152.62 58.4023 152.62C58.9623 152.62 59.5523 152.53 60.1723 152.35C60.7923 152.17 61.4223 151.89 62.0623 151.51L62.2123 151.87C60.7923 153.43 59.2123 154.21 57.4723 154.21ZM61.1923 144.22L60.0523 140.17H61.9123L61.8223 144.22H61.1923ZM69.9591 154.24C68.7391 154.24 67.6691 153.94 66.7491 153.34C65.8291 152.74 65.1091 151.9 64.5891 150.82C64.0891 149.72 63.8391 148.46 63.8391 147.04C63.8391 145.52 64.1091 144.18 64.6491 143.02C65.2091 141.86 65.9691 140.96 66.9291 140.32C67.9091 139.66 69.0291 139.33 70.2891 139.33C71.5291 139.33 72.6091 139.64 73.5291 140.26C74.4691 140.88 75.1991 141.73 75.7191 142.81C76.2391 143.89 76.4991 145.15 76.4991 146.59C76.4991 148.11 76.2191 149.45 75.6591 150.61C75.1191 151.75 74.3591 152.64 73.3791 153.28C72.3991 153.92 71.2591 154.24 69.9591 154.24ZM70.1391 152.92C71.0191 152.92 71.7891 152.67 72.4491 152.17C73.1291 151.67 73.6491 150.95 74.0091 150.01C74.3891 149.07 74.5791 147.96 74.5791 146.68C74.5791 145.46 74.3891 144.41 74.0091 143.53C73.6491 142.63 73.1291 141.94 72.4491 141.46C71.7891 140.98 70.9991 140.74 70.0791 140.74C69.5191 140.74 68.9291 140.84 68.3091 141.04C67.6891 141.24 67.0291 141.54 66.3291 141.94L67.3191 141.16C66.7991 142.06 66.4091 142.98 66.1491 143.92C65.8891 144.86 65.7591 145.84 65.7591 146.86C65.7591 148.1 65.9391 149.17 66.2991 150.07C66.6791 150.97 67.1991 151.67 67.8591 152.17C68.5191 152.67 69.2791 152.92 70.1391 152.92ZM78.4756 154V153.46C78.7556 153.32 79.0656 153.2 79.4056 153.1C79.7456 152.98 80.1656 152.88 80.6656 152.8L80.9356 142.21L79.4356 140.41C80.3756 139.83 81.3756 139.45 82.4356 139.27L82.6456 142V152.86L85.0156 153.46V154H78.4756ZM87.4456 154V153.46C87.7256 153.32 88.0356 153.2 88.3756 153.1C88.7156 152.98 89.1356 152.88 89.6356 152.8L89.9056 142.48L91.7056 141.76L91.6156 142.09V152.86L93.9856 153.46V154H87.4456ZM89.9056 142.48C88.8256 141.5 87.6456 141.01 86.3656 141.01C85.0656 141.01 83.7656 141.53 82.4656 142.57L82.4356 142C83.0356 141.38 83.6556 140.86 84.2956 140.44C84.9356 140 85.6056 139.64 86.3056 139.36C86.4256 139.36 86.5356 139.36 86.6356 139.36C86.7356 139.34 86.8256 139.33 86.9056 139.33C87.8456 139.33 88.7056 139.53 89.4856 139.93C90.2856 140.31 91.0256 140.92 91.7056 141.76L89.9056 142.48ZM96.4156 154V153.46C96.6956 153.32 97.0056 153.2 97.3456 153.1C97.6856 152.98 98.1056 152.88 98.6056 152.8L98.8756 142.48L100.586 141.61V152.86L102.956 153.46V154H96.4156ZM98.8756 142.48C97.7956 141.5 96.6156 141.01 95.3356 141.01C94.0356 141.01 92.7356 141.53 91.4356 142.57L91.4056 142C92.0056 141.38 92.6256 140.86 93.2656 140.44C93.9056 140 94.5756 139.64 95.2756 139.36C95.3956 139.36 95.5056 139.36 95.6056 139.36C95.7056 139.34 95.7956 139.33 95.8756 139.33C96.7956 139.33 97.6456 139.52 98.4256 139.9C99.2056 140.26 99.9256 140.83 100.586 141.61L98.8756 142.48ZM110.65 154.21C109.47 154.21 108.42 153.91 107.5 153.31C106.6 152.71 105.9 151.87 105.4 150.79C104.9 149.69 104.65 148.43 104.65 147.01C104.65 145.53 104.91 144.21 105.43 143.05C105.97 141.89 106.72 140.98 107.68 140.32C108.64 139.66 109.75 139.33 111.01 139.33C112.03 139.33 112.92 139.56 113.68 140.02C114.46 140.46 115.06 141.07 115.48 141.85C115.92 142.63 116.14 143.54 116.14 144.58L116.05 146.5C114.97 146.68 113.91 146.83 112.87 146.95C111.85 147.05 110.77 147.13 109.63 147.19C108.49 147.23 107.18 147.26 105.7 147.28L105.73 146.05L114.34 145.96L114.4 144.58C114.4 143.44 114.07 142.52 113.41 141.82C112.75 141.1 111.88 140.74 110.8 140.74C110.32 140.74 109.82 140.82 109.3 140.98C108.78 141.14 108.29 141.36 107.83 141.64C107.39 142.4 107.05 143.22 106.81 144.1C106.57 144.96 106.45 145.83 106.45 146.71C106.45 148.61 106.9 150.07 107.8 151.09C108.72 152.11 109.95 152.62 111.49 152.62C112.85 152.62 114.34 152.23 115.96 151.45L116.11 151.81C115.29 152.61 114.41 153.21 113.47 153.61C112.55 154.01 111.61 154.21 110.65 154.21ZM126.877 137.32V139.6H132.067L131.947 140.8H126.877V152.41L132.037 152.38C131.757 152.78 131.407 153.12 130.987 153.4C130.587 153.68 130.147 153.89 129.667 154.03C129.207 154.17 128.737 154.24 128.257 154.24C127.517 154.24 126.837 154.08 126.217 153.76C125.597 153.44 125.157 152.97 124.897 152.35L125.257 140.8H123.097V140.35C123.657 139.79 124.237 139.26 124.837 138.76C125.457 138.24 126.137 137.76 126.877 137.32ZM139.393 154.24C138.173 154.24 137.103 153.94 136.183 153.34C135.263 152.74 134.543 151.9 134.023 150.82C133.523 149.72 133.273 148.46 133.273 147.04C133.273 145.52 133.543 144.18 134.083 143.02C134.643 141.86 135.403 140.96 136.363 140.32C137.343 139.66 138.463 139.33 139.723 139.33C140.963 139.33 142.043 139.64 142.963 140.26C143.903 140.88 144.633 141.73 145.153 142.81C145.673 143.89 145.933 145.15 145.933 146.59C145.933 148.11 145.653 149.45 145.093 150.61C144.553 151.75 143.793 152.64 142.813 153.28C141.833 153.92 140.693 154.24 139.393 154.24ZM139.573 152.92C140.453 152.92 141.223 152.67 141.883 152.17C142.563 151.67 143.083 150.95 143.443 150.01C143.823 149.07 144.013 147.96 144.013 146.68C144.013 145.46 143.823 144.41 143.443 143.53C143.083 142.63 142.563 141.94 141.883 141.46C141.223 140.98 140.433 140.74 139.513 140.74C138.953 140.74 138.363 140.84 137.743 141.04C137.123 141.24 136.463 141.54 135.763 141.94L136.753 141.16C136.233 142.06 135.843 142.98 135.583 143.92C135.323 144.86 135.193 145.84 135.193 146.86C135.193 148.1 135.373 149.17 135.733 150.07C136.113 150.97 136.633 151.67 137.293 152.17C137.953 152.67 138.713 152.92 139.573 152.92ZM152.626 154V153.46C152.906 153.32 153.216 153.2 153.556 153.1C153.896 152.98 154.316 152.88 154.816 152.8L155.086 142.21L153.586 140.41C154.526 139.83 155.526 139.45 156.586 139.27L156.796 142V152.86L159.166 153.46V154H152.626ZM161.596 154V153.46C161.876 153.32 162.186 153.2 162.526 153.1C162.866 152.98 163.286 152.88 163.786 152.8L164.056 142.48L165.856 141.76L165.766 142.09V152.86L168.136 153.46V154H161.596ZM164.056 142.48C162.976 141.5 161.796 141.01 160.516 141.01C159.216 141.01 157.916 141.53 156.616 142.57L156.586 142C157.186 141.38 157.806 140.86 158.446 140.44C159.086 140 159.756 139.64 160.456 139.36C160.576 139.36 160.686 139.36 160.786 139.36C160.886 139.34 160.976 139.33 161.056 139.33C161.996 139.33 162.856 139.53 163.636 139.93C164.436 140.31 165.176 140.92 165.856 141.76L164.056 142.48ZM170.566 154V153.46C170.846 153.32 171.156 153.2 171.496 153.1C171.836 152.98 172.256 152.88 172.756 152.8L173.026 142.48L174.736 141.61V152.86L177.106 153.46V154H170.566ZM173.026 142.48C171.946 141.5 170.766 141.01 169.486 141.01C168.186 141.01 166.886 141.53 165.586 142.57L165.556 142C166.156 141.38 166.776 140.86 167.416 140.44C168.056 140 168.726 139.64 169.426 139.36C169.546 139.36 169.656 139.36 169.756 139.36C169.856 139.34 169.946 139.33 170.026 139.33C170.946 139.33 171.796 139.52 172.576 139.9C173.356 140.26 174.076 140.83 174.736 141.61L173.026 142.48ZM176.021 159.49L176.141 158.08L181.301 158.41C181.841 157.75 182.281 157.12 182.621 156.52C182.981 155.94 183.311 155.3 183.611 154.6C183.931 153.92 184.261 153.11 184.601 152.17L189.011 139.87H190.511L185.801 152.59C184.841 155.17 183.821 157.05 182.741 158.23C181.681 159.43 180.401 160.03 178.901 160.03C178.481 160.03 178.031 159.98 177.551 159.88C177.071 159.8 176.561 159.67 176.021 159.49ZM183.041 153.7L177.971 139.87H180.071L184.691 153.31L183.041 153.7ZM179.351 141.04C178.891 140.96 178.451 140.85 178.031 140.71C177.611 140.55 177.211 140.37 176.831 140.17V139.57H182.501V140.17L179.351 141.04ZM189.821 141.04C189.201 140.98 188.581 140.88 187.961 140.74C187.361 140.58 186.761 140.39 186.161 140.17V139.57H191.501V140.17L189.821 141.04ZM203.108 154.24C202.508 154.24 201.858 154.18 201.158 154.06C200.458 153.94 199.738 153.75 198.998 153.49L199.508 152.11C200.228 152.35 200.888 152.54 201.488 152.68C202.108 152.8 202.678 152.86 203.198 152.86C204.878 152.86 206.178 152.33 207.098 151.27C208.038 150.19 208.508 148.69 208.508 146.77C208.508 145.75 208.368 144.8 208.088 143.92C207.808 143.02 207.388 142.19 206.828 141.43L208.148 142.72C206.788 141.6 205.428 141.04 204.068 141.04C202.828 141.04 201.578 141.54 200.318 142.54V141.91C200.898 141.33 201.488 140.84 202.088 140.44C202.688 140.02 203.308 139.65 203.948 139.33C204.008 139.33 204.068 139.33 204.128 139.33C204.208 139.33 204.268 139.33 204.308 139.33C205.548 139.33 206.618 139.64 207.518 140.26C208.418 140.88 209.108 141.74 209.588 142.84C210.088 143.92 210.338 145.15 210.338 146.53C210.338 148.13 210.038 149.51 209.438 150.67C208.858 151.83 208.028 152.72 206.948 153.34C205.868 153.94 204.588 154.24 203.108 154.24ZM196.388 159.82V159.28C196.668 159.16 196.968 159.04 197.288 158.92C197.628 158.8 198.048 158.7 198.548 158.62L198.818 142.21L197.318 140.41C197.818 140.13 198.308 139.89 198.788 139.69C199.288 139.49 199.798 139.35 200.318 139.27L200.528 142V158.68L203.558 159.25V159.82H196.388ZM218.814 154.21C217.634 154.21 216.584 153.91 215.664 153.31C214.764 152.71 214.064 151.87 213.564 150.79C213.064 149.69 212.814 148.43 212.814 147.01C212.814 145.53 213.074 144.21 213.594 143.05C214.134 141.89 214.884 140.98 215.844 140.32C216.804 139.66 217.914 139.33 219.174 139.33C220.194 139.33 221.084 139.56 221.844 140.02C222.624 140.46 223.224 141.07 223.644 141.85C224.084 142.63 224.304 143.54 224.304 144.58L224.214 146.5C223.134 146.68 222.074 146.83 221.034 146.95C220.014 147.05 218.934 147.13 217.794 147.19C216.654 147.23 215.344 147.26 213.864 147.28L213.894 146.05L222.504 145.96L222.564 144.58C222.564 143.44 222.234 142.52 221.574 141.82C220.914 141.1 220.044 140.74 218.964 140.74C218.484 140.74 217.984 140.82 217.464 140.98C216.944 141.14 216.454 141.36 215.994 141.64C215.554 142.4 215.214 143.22 214.974 144.1C214.734 144.96 214.614 145.83 214.614 146.71C214.614 148.61 215.064 150.07 215.964 151.09C216.884 152.11 218.114 152.62 219.654 152.62C221.014 152.62 222.504 152.23 224.124 151.45L224.274 151.81C223.454 152.61 222.574 153.21 221.634 153.61C220.714 154.01 219.774 154.21 218.814 154.21ZM236.023 141.25C234.063 141.23 232.223 141.76 230.503 142.84V142.33C231.083 141.71 231.693 141.16 232.333 140.68C232.973 140.18 233.643 139.75 234.343 139.39C234.683 139.43 234.993 139.5 235.273 139.6C235.573 139.68 235.863 139.81 236.143 139.99L236.023 141.25ZM226.483 154V153.46C226.763 153.32 227.073 153.2 227.413 153.1C227.753 152.98 228.173 152.88 228.673 152.8L228.943 142.21L227.443 140.41C228.383 139.83 229.383 139.45 230.443 139.27L230.653 142.42V152.83L233.983 153.46V154H226.483ZM242.486 154.21C241.826 154.21 241.126 154.16 240.386 154.06C239.666 153.96 238.916 153.8 238.136 153.58L238.826 152.05C239.746 152.29 240.646 152.47 241.526 152.59C242.406 152.71 243.266 152.77 244.106 152.77C244.426 152.77 244.746 152.76 245.066 152.74C245.386 152.72 245.706 152.69 246.026 152.65L245.006 153.04C245.466 152.88 245.866 152.58 246.206 152.14C246.566 151.7 246.746 151.23 246.746 150.73C246.746 150.23 246.546 149.8 246.146 149.44C245.746 149.08 245.226 148.75 244.586 148.45C243.966 148.13 243.306 147.81 242.606 147.49C241.906 147.15 241.236 146.79 240.596 146.41C239.976 146.03 239.466 145.57 239.066 145.03C238.666 144.49 238.466 143.84 238.466 143.08C238.466 141.9 238.986 140.98 240.026 140.32C241.066 139.66 242.416 139.33 244.076 139.33C244.676 139.33 245.296 139.37 245.936 139.45C246.576 139.53 247.236 139.66 247.916 139.84L247.406 141.43C246.566 141.19 245.756 141.02 244.976 140.92C244.216 140.82 243.476 140.77 242.756 140.77C242.436 140.77 242.116 140.78 241.796 140.8C241.476 140.82 241.146 140.85 240.806 140.89L241.496 140.59C241.056 140.79 240.726 141.09 240.506 141.49C240.286 141.87 240.176 142.27 240.176 142.69C240.176 143.23 240.376 143.7 240.776 144.1C241.176 144.5 241.686 144.86 242.306 145.18C242.946 145.5 243.616 145.82 244.316 146.14C245.016 146.44 245.676 146.78 246.296 147.16C246.936 147.54 247.456 147.99 247.856 148.51C248.256 149.03 248.456 149.65 248.456 150.37C248.456 151.57 247.896 152.51 246.776 153.19C245.656 153.87 244.226 154.21 242.486 154.21ZM238.136 153.58L238.256 149.2H239.006L240.056 153.55L238.136 153.58ZM247.136 143.92L245.996 139.81L247.916 139.84L247.856 143.92H247.136ZM257.371 154.24C256.151 154.24 255.081 153.94 254.161 153.34C253.241 152.74 252.521 151.9 252.001 150.82C251.501 149.72 251.251 148.46 251.251 147.04C251.251 145.52 251.521 144.18 252.061 143.02C252.621 141.86 253.381 140.96 254.341 140.32C255.321 139.66 256.441 139.33 257.701 139.33C258.941 139.33 260.021 139.64 260.941 140.26C261.881 140.88 262.611 141.73 263.131 142.81C263.651 143.89 263.911 145.15 263.911 146.59C263.911 148.11 263.631 149.45 263.071 150.61C262.531 151.75 261.771 152.64 260.791 153.28C259.811 153.92 258.671 154.24 257.371 154.24ZM257.551 152.92C258.431 152.92 259.201 152.67 259.861 152.17C260.541 151.67 261.061 150.95 261.421 150.01C261.801 149.07 261.991 147.96 261.991 146.68C261.991 145.46 261.801 144.41 261.421 143.53C261.061 142.63 260.541 141.94 259.861 141.46C259.201 140.98 258.411 140.74 257.491 140.74C256.931 140.74 256.341 140.84 255.721 141.04C255.101 141.24 254.441 141.54 253.741 141.94L254.731 141.16C254.211 142.06 253.821 142.98 253.561 143.92C253.301 144.86 253.171 145.84 253.171 146.86C253.171 148.1 253.351 149.17 253.711 150.07C254.091 150.97 254.611 151.67 255.271 152.17C255.931 152.67 256.691 152.92 257.551 152.92ZM265.888 154V153.46C266.168 153.32 266.478 153.2 266.818 153.1C267.158 152.98 267.578 152.88 268.078 152.8L268.348 142.21L266.848 140.41C267.788 139.83 268.788 139.45 269.848 139.27L270.058 142V152.86L272.428 153.46V154H265.888ZM274.858 154V153.46C275.138 153.32 275.448 153.2 275.788 153.1C276.128 152.98 276.548 152.88 277.048 152.8L277.318 142.48L279.028 141.61V152.86L281.398 153.46V154H274.858ZM269.878 142.57L269.848 142C270.448 141.38 271.068 140.86 271.708 140.44C272.348 140 273.018 139.64 273.718 139.36C273.838 139.36 273.948 139.36 274.048 139.36C274.148 139.34 274.238 139.33 274.318 139.33C275.238 139.33 276.088 139.52 276.868 139.9C277.648 140.26 278.368 140.83 279.028 141.61L277.318 142.48C276.238 141.5 275.058 141.01 273.778 141.01C272.478 141.01 271.178 141.53 269.878 142.57ZM294.198 154.15C293.618 154.15 293.078 153.93 292.578 153.49C292.098 153.05 291.758 152.4 291.558 151.54L291.858 142.33C290.558 141.23 288.968 140.68 287.088 140.68C286.708 140.68 286.318 140.71 285.918 140.77C285.538 140.83 285.158 140.91 284.778 141.01L285.708 140.5L285.228 144.64C284.688 144.5 284.278 144.26 283.998 143.92C283.718 143.58 283.578 143.18 283.578 142.72C283.578 142.08 283.788 141.51 284.208 141.01C284.648 140.49 285.238 140.08 285.978 139.78C286.718 139.48 287.538 139.33 288.438 139.33C289.438 139.33 290.378 139.53 291.258 139.93C292.138 140.31 292.908 140.87 293.568 141.61V152.26L296.598 152.14C296.498 152.58 296.318 152.95 296.058 153.25C295.818 153.55 295.538 153.78 295.218 153.94C294.898 154.08 294.558 154.15 294.198 154.15ZM287.418 154.3C286.158 154.28 285.138 153.91 284.358 153.19C283.578 152.47 283.188 151.55 283.188 150.43C283.188 149.87 283.308 149.38 283.548 148.96C283.808 148.54 284.268 148.16 284.928 147.82C285.588 147.46 286.518 147.11 287.718 146.77C288.918 146.41 290.458 146.02 292.338 145.6V146.8L284.868 148.36L285.498 148.03C285.398 148.33 285.318 148.65 285.258 148.99C285.198 149.33 285.168 149.65 285.168 149.95C285.168 150.79 285.378 151.45 285.798 151.93C286.238 152.39 286.878 152.62 287.718 152.62C288.358 152.62 289.038 152.49 289.758 152.23C290.478 151.95 291.238 151.53 292.038 150.97V151.48C291.358 152.12 290.648 152.67 289.908 153.13C289.188 153.59 288.358 153.98 287.418 154.3ZM297.32 154V153.46C297.62 153.32 297.94 153.2 298.28 153.1C298.62 152.98 299.04 152.88 299.54 152.8L299.84 134.89L298.28 133.03C298.78 132.73 299.29 132.49 299.81 132.31C300.35 132.11 300.91 131.97 301.49 131.89V152.86L303.86 153.46V154H297.32ZM323.391 154.15L318.231 139.87H320.241L324.831 153.19H324.321L329.151 139.87H330.681L325.911 152.53C325.791 152.85 325.681 153.12 325.581 153.34C325.481 153.54 325.351 153.7 325.191 153.82C325.031 153.92 324.811 153.99 324.531 154.03C324.251 154.09 323.871 154.13 323.391 154.15ZM315.321 154.15L310.101 139.87H312.201L316.791 153.19H316.311L320.001 142.87L320.781 144.73L317.841 152.53C317.741 152.85 317.631 153.12 317.511 153.34C317.411 153.54 317.281 153.7 317.121 153.82C316.961 153.92 316.741 153.99 316.461 154.03C316.181 154.09 315.801 154.13 315.321 154.15ZM311.451 141.04C310.991 140.96 310.551 140.85 310.131 140.71C309.711 140.55 309.311 140.37 308.931 140.17V139.57H314.601V140.17L311.451 141.04ZM319.521 141.04C319.081 140.96 318.651 140.85 318.231 140.71C317.831 140.55 317.441 140.37 317.061 140.17V139.57H322.641V140.17L319.521 141.04ZM329.991 141.04C329.371 140.98 328.751 140.88 328.131 140.74C327.531 140.58 326.931 140.39 326.331 140.17V139.57H331.641V140.17L329.991 141.04ZM338.286 154.21C337.106 154.21 336.056 153.91 335.136 153.31C334.236 152.71 333.536 151.87 333.036 150.79C332.536 149.69 332.286 148.43 332.286 147.01C332.286 145.53 332.546 144.21 333.066 143.05C333.606 141.89 334.356 140.98 335.316 140.32C336.276 139.66 337.386 139.33 338.646 139.33C339.666 139.33 340.556 139.56 341.316 140.02C342.096 140.46 342.696 141.07 343.116 141.85C343.556 142.63 343.776 143.54 343.776 144.58L343.686 146.5C342.606 146.68 341.546 146.83 340.506 146.95C339.486 147.05 338.406 147.13 337.266 147.19C336.126 147.23 334.816 147.26 333.336 147.28L333.366 146.05L341.976 145.96L342.036 144.58C342.036 143.44 341.706 142.52 341.046 141.82C340.386 141.1 339.516 140.74 338.436 140.74C337.956 140.74 337.456 140.82 336.936 140.98C336.416 141.14 335.926 141.36 335.466 141.64C335.026 142.4 334.686 143.22 334.446 144.1C334.206 144.96 334.086 145.83 334.086 146.71C334.086 148.61 334.536 150.07 335.436 151.09C336.356 152.11 337.586 152.62 339.126 152.62C340.486 152.62 341.976 152.23 343.596 151.45L343.746 151.81C342.926 152.61 342.046 153.21 341.106 153.61C340.186 154.01 339.246 154.21 338.286 154.21ZM347.666 153.37L348.596 152.11C349.316 152.35 349.986 152.54 350.606 152.68C351.226 152.8 351.786 152.86 352.286 152.86C353.966 152.86 355.266 152.33 356.186 151.27C357.126 150.19 357.596 148.69 357.596 146.77C357.596 145.75 357.456 144.8 357.176 143.92C356.896 143.02 356.476 142.19 355.916 141.43L357.266 142.72C355.906 141.6 354.536 141.04 353.156 141.04C351.916 141.04 350.666 141.54 349.406 142.54V141.91C349.986 141.33 350.576 140.84 351.176 140.44C351.776 140.02 352.406 139.65 353.066 139.33C353.126 139.33 353.186 139.33 353.246 139.33C353.306 139.33 353.356 139.33 353.396 139.33C354.636 139.33 355.706 139.64 356.606 140.26C357.526 140.88 358.226 141.74 358.706 142.84C359.186 143.92 359.426 145.15 359.426 146.53C359.426 148.13 359.126 149.51 358.526 150.67C357.946 151.83 357.116 152.72 356.036 153.34C354.956 153.94 353.686 154.24 352.226 154.24C351.546 154.24 350.816 154.17 350.036 154.03C349.276 153.89 348.486 153.67 347.666 153.37ZM347.666 153.37L347.996 134.89L346.526 133C347.046 132.7 347.556 132.46 348.056 132.28C348.576 132.1 349.106 131.97 349.646 131.89V153.07L347.666 153.37ZM366.734 154.21C366.074 154.21 365.374 154.16 364.634 154.06C363.914 153.96 363.164 153.8 362.384 153.58L363.074 152.05C363.994 152.29 364.894 152.47 365.774 152.59C366.654 152.71 367.514 152.77 368.354 152.77C368.674 152.77 368.994 152.76 369.314 152.74C369.634 152.72 369.954 152.69 370.274 152.65L369.254 153.04C369.714 152.88 370.114 152.58 370.454 152.14C370.814 151.7 370.994 151.23 370.994 150.73C370.994 150.23 370.794 149.8 370.394 149.44C369.994 149.08 369.474 148.75 368.834 148.45C368.214 148.13 367.554 147.81 366.854 147.49C366.154 147.15 365.484 146.79 364.844 146.41C364.224 146.03 363.714 145.57 363.314 145.03C362.914 144.49 362.714 143.84 362.714 143.08C362.714 141.9 363.234 140.98 364.274 140.32C365.314 139.66 366.664 139.33 368.324 139.33C368.924 139.33 369.544 139.37 370.184 139.45C370.824 139.53 371.484 139.66 372.164 139.84L371.654 141.43C370.814 141.19 370.004 141.02 369.224 140.92C368.464 140.82 367.724 140.77 367.004 140.77C366.684 140.77 366.364 140.78 366.044 140.8C365.724 140.82 365.394 140.85 365.054 140.89L365.744 140.59C365.304 140.79 364.974 141.09 364.754 141.49C364.534 141.87 364.424 142.27 364.424 142.69C364.424 143.23 364.624 143.7 365.024 144.1C365.424 144.5 365.934 144.86 366.554 145.18C367.194 145.5 367.864 145.82 368.564 146.14C369.264 146.44 369.924 146.78 370.544 147.16C371.184 147.54 371.704 147.99 372.104 148.51C372.504 149.03 372.704 149.65 372.704 150.37C372.704 151.57 372.144 152.51 371.024 153.19C369.904 153.87 368.474 154.21 366.734 154.21ZM362.384 153.58L362.504 149.2H363.254L364.304 153.55L362.384 153.58ZM371.384 143.92L370.244 139.81L372.164 139.84L372.104 143.92H371.384ZM374.989 154V153.46C375.309 153.32 375.649 153.19 376.009 153.07C376.369 152.95 376.759 152.86 377.179 152.8L377.449 142.21L375.949 140.41C376.429 140.11 376.939 139.87 377.479 139.69C378.019 139.49 378.579 139.35 379.159 139.27V152.86L381.529 153.46V154H374.989ZM378.529 133.24C378.789 133.48 379.019 133.77 379.219 134.11C379.419 134.45 379.539 134.79 379.579 135.13C379.359 135.39 379.079 135.62 378.739 135.82C378.399 136 378.059 136.12 377.719 136.18C377.459 135.94 377.229 135.66 377.029 135.34C376.829 135 376.689 134.66 376.609 134.32C376.849 134.04 377.139 133.8 377.479 133.6C377.819 133.4 378.169 133.28 378.529 133.24ZM386.711 137.32V139.6H391.901L391.781 140.8H386.711V152.41L391.871 152.38C391.591 152.78 391.241 153.12 390.821 153.4C390.421 153.68 389.981 153.89 389.501 154.03C389.041 154.17 388.571 154.24 388.091 154.24C387.351 154.24 386.671 154.08 386.051 153.76C385.431 153.44 384.991 152.97 384.731 152.35L385.091 140.8H382.931V140.35C383.491 139.79 384.071 139.26 384.671 138.76C385.291 138.24 385.971 137.76 386.711 137.32ZM399.107 154.21C397.927 154.21 396.877 153.91 395.957 153.31C395.057 152.71 394.357 151.87 393.857 150.79C393.357 149.69 393.107 148.43 393.107 147.01C393.107 145.53 393.367 144.21 393.887 143.05C394.427 141.89 395.177 140.98 396.137 140.32C397.097 139.66 398.207 139.33 399.467 139.33C400.487 139.33 401.377 139.56 402.137 140.02C402.917 140.46 403.517 141.07 403.937 141.85C404.377 142.63 404.597 143.54 404.597 144.58L404.507 146.5C403.427 146.68 402.367 146.83 401.327 146.95C400.307 147.05 399.227 147.13 398.087 147.19C396.947 147.23 395.637 147.26 394.157 147.28L394.187 146.05L402.797 145.96L402.857 144.58C402.857 143.44 402.527 142.52 401.867 141.82C401.207 141.1 400.337 140.74 399.257 140.74C398.777 140.74 398.277 140.82 397.757 140.98C397.237 141.14 396.747 141.36 396.287 141.64C395.847 142.4 395.507 143.22 395.267 144.1C395.027 144.96 394.907 145.83 394.907 146.71C394.907 148.61 395.357 150.07 396.257 151.09C397.177 152.11 398.407 152.62 399.947 152.62C401.307 152.62 402.797 152.23 404.417 151.45L404.567 151.81C403.747 152.61 402.867 153.21 401.927 153.61C401.007 154.01 400.067 154.21 399.107 154.21ZM411.036 134.38L411.006 137.77L410.376 148.24H409.326L409.116 137.77L409.176 134.38C409.356 134.36 409.516 134.35 409.656 134.35C409.816 134.33 409.966 134.32 410.106 134.32C410.286 134.32 410.446 134.33 410.586 134.35C410.746 134.35 410.896 134.36 411.036 134.38ZM410.076 151.24C410.316 151.44 410.526 151.69 410.706 151.99C410.886 152.29 411.026 152.63 411.126 153.01C410.906 153.25 410.626 153.47 410.286 153.67C409.966 153.85 409.636 153.97 409.296 154.03C409.036 153.79 408.816 153.51 408.636 153.19C408.476 152.85 408.366 152.53 408.306 152.23C408.546 151.97 408.816 151.75 409.116 151.57C409.436 151.39 409.756 151.28 410.076 151.24ZM431.498 143.89C433.118 144.15 434.378 144.72 435.278 145.6C436.198 146.46 436.658 147.5 436.658 148.72C436.658 150.34 436.028 151.63 434.768 152.59C433.528 153.53 431.818 154 429.638 154H419.708V153.37C420.048 153.21 420.478 153.08 420.998 152.98C421.538 152.86 422.208 152.77 423.008 152.71L423.278 135.88L419.708 135.28V134.59H429.908C431.688 134.59 433.098 135 434.138 135.82C435.198 136.62 435.728 137.69 435.728 139.03C435.728 140.13 435.348 141.12 434.588 142C433.828 142.86 432.798 143.49 431.498 143.89ZM425.138 153.4L424.328 152.59H431.108C432.208 152.35 433.068 151.9 433.688 151.24C434.328 150.56 434.648 149.74 434.648 148.78C434.648 147.56 434.168 146.59 433.208 145.87C432.268 145.13 431.028 144.76 429.488 144.76H424.868V143.35H430.058C432.518 142.51 433.748 141.19 433.748 139.39C433.748 138.35 433.368 137.53 432.608 136.93C431.848 136.31 430.818 136 429.518 136H424.328L425.138 135.19V153.4ZM445.952 154.21C444.772 154.21 443.722 153.91 442.802 153.31C441.902 152.71 441.202 151.87 440.702 150.79C440.202 149.69 439.952 148.43 439.952 147.01C439.952 145.53 440.212 144.21 440.732 143.05C441.272 141.89 442.022 140.98 442.982 140.32C443.942 139.66 445.052 139.33 446.312 139.33C447.332 139.33 448.222 139.56 448.982 140.02C449.762 140.46 450.362 141.07 450.782 141.85C451.222 142.63 451.442 143.54 451.442 144.58L451.352 146.5C450.272 146.68 449.212 146.83 448.172 146.95C447.152 147.05 446.072 147.13 444.932 147.19C443.792 147.23 442.482 147.26 441.002 147.28L441.032 146.05L449.642 145.96L449.702 144.58C449.702 143.44 449.372 142.52 448.712 141.82C448.052 141.1 447.182 140.74 446.102 140.74C445.622 140.74 445.122 140.82 444.602 140.98C444.082 141.14 443.592 141.36 443.132 141.64C442.692 142.4 442.352 143.22 442.112 144.1C441.872 144.96 441.752 145.83 441.752 146.71C441.752 148.61 442.202 150.07 443.102 151.09C444.022 152.11 445.252 152.62 446.792 152.62C448.152 152.62 449.642 152.23 451.262 151.45L451.412 151.81C450.592 152.61 449.712 153.21 448.772 153.61C447.852 154.01 446.912 154.21 445.952 154.21ZM453.502 154V153.46C453.802 153.32 454.122 153.2 454.462 153.1C454.802 152.98 455.222 152.88 455.722 152.8L456.022 134.89L454.462 133.03C454.962 132.73 455.472 132.49 455.992 132.31C456.532 132.11 457.092 131.97 457.672 131.89V152.86L460.042 153.46V154H453.502ZM468.045 154.24C466.825 154.24 465.755 153.94 464.835 153.34C463.915 152.74 463.195 151.9 462.675 150.82C462.175 149.72 461.925 148.46 461.925 147.04C461.925 145.52 462.195 144.18 462.735 143.02C463.295 141.86 464.055 140.96 465.015 140.32C465.995 139.66 467.115 139.33 468.375 139.33C469.615 139.33 470.695 139.64 471.615 140.26C472.555 140.88 473.285 141.73 473.805 142.81C474.325 143.89 474.585 145.15 474.585 146.59C474.585 148.11 474.305 149.45 473.745 150.61C473.205 151.75 472.445 152.64 471.465 153.28C470.485 153.92 469.345 154.24 468.045 154.24ZM468.225 152.92C469.105 152.92 469.875 152.67 470.535 152.17C471.215 151.67 471.735 150.95 472.095 150.01C472.475 149.07 472.665 147.96 472.665 146.68C472.665 145.46 472.475 144.41 472.095 143.53C471.735 142.63 471.215 141.94 470.535 141.46C469.875 140.98 469.085 140.74 468.165 140.74C467.605 140.74 467.015 140.84 466.395 141.04C465.775 141.24 465.115 141.54 464.415 141.94L465.405 141.16C464.885 142.06 464.495 142.98 464.235 143.92C463.975 144.86 463.845 145.84 463.845 146.86C463.845 148.1 464.025 149.17 464.385 150.07C464.765 150.97 465.285 151.67 465.945 152.17C466.605 152.67 467.365 152.92 468.225 152.92ZM489.621 154.15L484.461 139.87H486.471L491.061 153.19H490.551L495.381 139.87H496.911L492.141 152.53C492.021 152.85 491.911 153.12 491.811 153.34C491.711 153.54 491.581 153.7 491.421 153.82C491.261 153.92 491.041 153.99 490.761 154.03C490.481 154.09 490.101 154.13 489.621 154.15ZM481.551 154.15L476.331 139.87H478.431L483.021 153.19H482.541L486.231 142.87L487.011 144.73L484.071 152.53C483.971 152.85 483.861 153.12 483.741 153.34C483.641 153.54 483.511 153.7 483.351 153.82C483.191 153.92 482.971 153.99 482.691 154.03C482.411 154.09 482.031 154.13 481.551 154.15ZM477.681 141.04C477.221 140.96 476.781 140.85 476.361 140.71C475.941 140.55 475.541 140.37 475.161 140.17V139.57H480.831V140.17L477.681 141.04ZM485.751 141.04C485.311 140.96 484.881 140.85 484.461 140.71C484.061 140.55 483.671 140.37 483.291 140.17V139.57H488.871V140.17L485.751 141.04ZM496.221 141.04C495.601 140.98 494.981 140.88 494.361 140.74C493.761 140.58 493.161 140.39 492.561 140.17V139.57H497.871V140.17L496.221 141.04ZM501.334 159.49L501.454 158.08L506.614 158.41C507.154 157.75 507.594 157.12 507.934 156.52C508.294 155.94 508.624 155.3 508.924 154.6C509.244 153.92 509.574 153.11 509.914 152.17L514.324 139.87H515.824L511.114 152.59C510.154 155.17 509.134 157.05 508.054 158.23C506.994 159.43 505.714 160.03 504.214 160.03C503.794 160.03 503.344 159.98 502.864 159.88C502.384 159.8 501.874 159.67 501.334 159.49ZM508.354 153.7L503.284 139.87H505.384L510.004 153.31L508.354 153.7ZM504.664 141.04C504.204 140.96 503.764 140.85 503.344 140.71C502.924 140.55 502.524 140.37 502.144 140.17V139.57H507.814V140.17L504.664 141.04ZM515.134 141.04C514.514 140.98 513.894 140.88 513.274 140.74C512.674 140.58 512.074 140.39 511.474 140.17V139.57H516.814V140.17L515.134 141.04ZM523.533 154.24C522.313 154.24 521.243 153.94 520.323 153.34C519.403 152.74 518.683 151.9 518.163 150.82C517.663 149.72 517.413 148.46 517.413 147.04C517.413 145.52 517.683 144.18 518.223 143.02C518.783 141.86 519.543 140.96 520.503 140.32C521.483 139.66 522.603 139.33 523.863 139.33C525.103 139.33 526.183 139.64 527.103 140.26C528.043 140.88 528.773 141.73 529.293 142.81C529.813 143.89 530.073 145.15 530.073 146.59C530.073 148.11 529.793 149.45 529.233 150.61C528.693 151.75 527.933 152.64 526.953 153.28C525.973 153.92 524.833 154.24 523.533 154.24ZM523.713 152.92C524.593 152.92 525.363 152.67 526.023 152.17C526.703 151.67 527.223 150.95 527.583 150.01C527.963 149.07 528.153 147.96 528.153 146.68C528.153 145.46 527.963 144.41 527.583 143.53C527.223 142.63 526.703 141.94 526.023 141.46C525.363 140.98 524.573 140.74 523.653 140.74C523.093 140.74 522.503 140.84 521.883 141.04C521.263 141.24 520.603 141.54 519.903 141.94L520.893 141.16C520.373 142.06 519.983 142.98 519.723 143.92C519.463 144.86 519.333 145.84 519.333 146.86C519.333 148.1 519.513 149.17 519.873 150.07C520.253 150.97 520.773 151.67 521.433 152.17C522.093 152.67 522.853 152.92 523.713 152.92ZM544.649 152.32L547.709 152.2C547.589 152.64 547.399 153.01 547.139 153.31C546.899 153.59 546.619 153.8 546.299 153.94C545.999 154.08 545.689 154.15 545.369 154.15C544.989 154.15 544.609 154.05 544.229 153.85C543.849 153.63 543.529 153.32 543.269 152.92C543.009 152.5 542.819 151.99 542.699 151.39L542.939 142.21L541.439 140.41C542.459 139.81 543.529 139.43 544.649 139.27V152.32ZM539.039 154.21C538.919 154.23 538.809 154.24 538.709 154.24C538.629 154.24 538.539 154.24 538.439 154.24C537.519 154.24 536.669 154.05 535.889 153.67C535.129 153.29 534.409 152.7 533.729 151.9L535.439 151C536.579 152.02 537.789 152.53 539.069 152.53C540.349 152.53 541.629 152.02 542.909 151L542.939 151.57C542.359 152.19 541.739 152.72 541.079 153.16C540.439 153.58 539.759 153.93 539.039 154.21ZM533.729 151.9L533.999 142.21L532.469 140.41C533.529 139.81 534.599 139.43 535.679 139.27V151.51L533.729 151.9ZM559.709 154.21C558.569 154.21 557.559 153.9 556.679 153.28C555.799 152.66 555.109 151.8 554.609 150.7C554.109 149.6 553.859 148.33 553.859 146.89C553.859 145.35 554.139 144.01 554.699 142.87C555.279 141.73 556.069 140.86 557.069 140.26C558.069 139.64 559.199 139.33 560.459 139.33C561.079 139.33 561.699 139.4 562.319 139.54C562.959 139.68 563.569 139.89 564.149 140.17L563.789 141.67C562.629 141.09 561.359 140.8 559.979 140.8C559.359 140.8 558.749 140.89 558.149 141.07C557.569 141.25 557.009 141.5 556.469 141.82L557.279 141.13C556.799 141.91 556.419 142.78 556.139 143.74C555.879 144.7 555.749 145.67 555.749 146.65C555.749 147.89 555.959 148.96 556.379 149.86C556.799 150.74 557.379 151.42 558.119 151.9C558.859 152.38 559.699 152.62 560.639 152.62C561.199 152.62 561.789 152.53 562.409 152.35C563.029 152.17 563.659 151.89 564.299 151.51L564.449 151.87C563.029 153.43 561.449 154.21 559.709 154.21ZM563.429 144.22L562.289 140.17H564.149L564.059 144.22H563.429ZM577.791 154.15C577.211 154.15 576.671 153.93 576.171 153.49C575.691 153.05 575.351 152.4 575.151 151.54L575.451 142.33C574.151 141.23 572.561 140.68 570.681 140.68C570.301 140.68 569.911 140.71 569.511 140.77C569.131 140.83 568.751 140.91 568.371 141.01L569.301 140.5L568.821 144.64C568.281 144.5 567.871 144.26 567.591 143.92C567.311 143.58 567.171 143.18 567.171 142.72C567.171 142.08 567.381 141.51 567.801 141.01C568.241 140.49 568.831 140.08 569.571 139.78C570.311 139.48 571.131 139.33 572.031 139.33C573.031 139.33 573.971 139.53 574.851 139.93C575.731 140.31 576.501 140.87 577.161 141.61V152.26L580.191 152.14C580.091 152.58 579.911 152.95 579.651 153.25C579.411 153.55 579.131 153.78 578.811 153.94C578.491 154.08 578.151 154.15 577.791 154.15ZM571.011 154.3C569.751 154.28 568.731 153.91 567.951 153.19C567.171 152.47 566.781 151.55 566.781 150.43C566.781 149.87 566.901 149.38 567.141 148.96C567.401 148.54 567.861 148.16 568.521 147.82C569.181 147.46 570.111 147.11 571.311 146.77C572.511 146.41 574.051 146.02 575.931 145.6V146.8L568.461 148.36L569.091 148.03C568.991 148.33 568.911 148.65 568.851 148.99C568.791 149.33 568.761 149.65 568.761 149.95C568.761 150.79 568.971 151.45 569.391 151.93C569.831 152.39 570.471 152.62 571.311 152.62C571.951 152.62 572.631 152.49 573.351 152.23C574.071 151.95 574.831 151.53 575.631 150.97V151.48C574.951 152.12 574.241 152.67 573.501 153.13C572.781 153.59 571.951 153.98 571.011 154.3ZM581.034 154V153.46C581.314 153.32 581.624 153.2 581.964 153.1C582.304 152.98 582.724 152.88 583.224 152.8L583.494 142.21L581.994 140.41C582.934 139.83 583.934 139.45 584.994 139.27L585.204 142V152.86L587.574 153.46V154H581.034ZM590.004 154V153.46C590.284 153.32 590.594 153.2 590.934 153.1C591.274 152.98 591.694 152.88 592.194 152.8L592.464 142.48L594.174 141.61V152.86L596.544 153.46V154H590.004ZM585.024 142.57L584.994 142C585.594 141.38 586.214 140.86 586.854 140.44C587.494 140 588.164 139.64 588.864 139.36C588.984 139.36 589.094 139.36 589.194 139.36C589.294 139.34 589.384 139.33 589.464 139.33C590.384 139.33 591.234 139.52 592.014 139.9C592.794 140.26 593.514 140.83 594.174 141.61L592.464 142.48C591.384 141.5 590.204 141.01 588.924 141.01C587.624 141.01 586.324 141.53 585.024 142.57ZM602.542 140.8V140.41C602.922 140.19 603.312 140.01 603.712 139.87C604.132 139.73 604.582 139.64 605.062 139.6C605.102 138.28 605.242 137.14 605.482 136.18C605.722 135.22 606.072 134.42 606.532 133.78C606.992 133.14 607.562 132.67 608.242 132.37C608.922 132.05 609.702 131.89 610.582 131.89C610.742 131.89 610.912 131.9 611.092 131.92C611.272 131.92 611.452 131.93 611.632 131.95V133.75C611.312 133.71 610.992 133.69 610.672 133.69C610.372 133.67 610.062 133.66 609.742 133.66C609.382 133.66 609.012 133.67 608.632 133.69C608.272 133.71 607.912 133.76 607.552 133.84C607.292 134.26 607.102 134.98 606.982 136C606.862 137 606.812 138.2 606.832 139.6H611.152L611.032 140.8H602.542ZM606.832 140.2V152.86L609.742 153.46V154H602.812V153.46C603.072 153.32 603.362 153.2 603.682 153.1C604.022 152.98 604.412 152.88 604.852 152.8L605.092 140.2H606.832ZM612.202 154V153.46C612.522 153.32 612.862 153.19 613.222 153.07C613.582 152.95 613.972 152.86 614.392 152.8L614.662 142.21L613.162 140.41C613.642 140.11 614.152 139.87 614.692 139.69C615.232 139.49 615.792 139.35 616.372 139.27V152.86L618.742 153.46V154H612.202ZM615.772 133.24C616.032 133.48 616.262 133.77 616.462 134.11C616.662 134.45 616.782 134.79 616.822 135.13C616.602 135.39 616.322 135.62 615.982 135.82C615.642 136 615.302 136.12 614.962 136.18C614.702 135.94 614.472 135.66 614.272 135.34C614.072 135 613.932 134.66 613.852 134.32C614.092 134.04 614.382 133.8 614.722 133.6C615.062 133.4 615.412 133.28 615.772 133.24ZM620.058 154V153.46C620.338 153.32 620.648 153.2 620.988 153.1C621.328 152.98 621.748 152.88 622.248 152.8L622.518 142.21L621.018 140.41C621.958 139.83 622.958 139.45 624.018 139.27L624.228 142V152.86L626.598 153.46V154H620.058ZM629.028 154V153.46C629.308 153.32 629.618 153.2 629.958 153.1C630.298 152.98 630.718 152.88 631.218 152.8L631.488 142.48L633.198 141.61V152.86L635.568 153.46V154H629.028ZM624.048 142.57L624.018 142C624.618 141.38 625.238 140.86 625.878 140.44C626.518 140 627.188 139.64 627.888 139.36C628.008 139.36 628.118 139.36 628.218 139.36C628.318 139.34 628.408 139.33 628.488 139.33C629.408 139.33 630.258 139.52 631.038 139.9C631.818 140.26 632.538 140.83 633.198 141.61L631.488 142.48C630.408 141.5 629.228 141.01 627.948 141.01C626.648 141.01 625.348 141.53 624.048 142.57ZM643.238 154.24C642.038 154.24 640.988 153.95 640.088 153.37C639.188 152.77 638.488 151.93 637.988 150.85C637.488 149.75 637.238 148.48 637.238 147.04C637.238 144.62 637.898 142.73 639.218 141.37C640.538 140.01 642.308 139.33 644.528 139.33C645.128 139.33 645.748 139.38 646.388 139.48C647.028 139.58 647.688 139.73 648.368 139.93L648.008 141.55C646.568 140.99 645.238 140.71 644.018 140.71C643.258 140.71 642.528 140.82 641.828 141.04C641.128 141.24 640.448 141.54 639.788 141.94L640.538 141.37C640.078 142.09 639.718 142.93 639.458 143.89C639.218 144.85 639.098 145.85 639.098 146.89C639.098 148.09 639.278 149.12 639.638 149.98C640.018 150.82 640.528 151.46 641.168 151.9C641.828 152.32 642.568 152.53 643.388 152.53C643.968 152.53 644.578 152.41 645.218 152.17C645.878 151.93 646.538 151.55 647.198 151.03V151.66C646.678 152.16 646.108 152.64 645.488 153.1C644.888 153.54 644.228 153.92 643.508 154.24C643.468 154.24 643.428 154.24 643.388 154.24C643.348 154.24 643.298 154.24 643.238 154.24ZM649.628 154.15C649.248 154.15 648.868 154.05 648.488 153.85C648.108 153.63 647.778 153.32 647.498 152.92C647.238 152.5 647.058 151.99 646.958 151.39L647.228 134.89L645.818 133C646.278 132.72 646.748 132.49 647.228 132.31C647.728 132.11 648.288 131.97 648.908 131.89V152.32L651.908 152.2C651.788 152.64 651.608 153.01 651.368 153.31C651.128 153.59 650.858 153.8 650.558 153.94C650.258 154.08 649.948 154.15 649.628 154.15ZM647.888 131.47L647.858 131.44H647.888V131.47ZM661.486 137.32V139.6H666.676L666.556 140.8H661.486V152.41L666.646 152.38C666.366 152.78 666.016 153.12 665.596 153.4C665.196 153.68 664.756 153.89 664.276 154.03C663.816 154.17 663.346 154.24 662.866 154.24C662.126 154.24 661.446 154.08 660.826 153.76C660.206 153.44 659.766 152.97 659.506 152.35L659.866 140.8H657.706V140.35C658.266 139.79 658.846 139.26 659.446 138.76C660.066 138.24 660.746 137.76 661.486 137.32ZM667.721 154V153.46C668.021 153.32 668.341 153.2 668.681 153.1C669.021 152.98 669.441 152.88 669.941 152.8L670.241 134.89L668.681 133.03C669.181 132.73 669.691 132.49 670.211 132.31C670.751 132.11 671.311 131.97 671.891 131.89V152.86L674.261 153.46V154H667.721ZM676.721 154V153.46C677.001 153.32 677.311 153.2 677.651 153.1C677.991 152.98 678.411 152.88 678.911 152.8L679.181 142.48L680.861 141.61V152.86L683.261 153.46V154H676.721ZM671.741 142.57L671.711 142C672.291 141.38 672.901 140.86 673.541 140.44C674.201 140 674.881 139.64 675.581 139.36C675.701 139.36 675.811 139.36 675.911 139.36C676.011 139.34 676.101 139.33 676.181 139.33C677.101 139.33 677.941 139.52 678.701 139.9C679.481 140.26 680.201 140.83 680.861 141.61L679.181 142.48C678.101 141.5 676.921 141.01 675.641 141.01C674.341 141.01 673.041 141.53 671.741 142.57ZM690.933 154.21C689.753 154.21 688.703 153.91 687.783 153.31C686.883 152.71 686.183 151.87 685.683 150.79C685.183 149.69 684.933 148.43 684.933 147.01C684.933 145.53 685.193 144.21 685.713 143.05C686.253 141.89 687.003 140.98 687.963 140.32C688.923 139.66 690.033 139.33 691.293 139.33C692.313 139.33 693.203 139.56 693.963 140.02C694.743 140.46 695.343 141.07 695.763 141.85C696.203 142.63 696.423 143.54 696.423 144.58L696.333 146.5C695.253 146.68 694.193 146.83 693.153 146.95C692.133 147.05 691.053 147.13 689.913 147.19C688.773 147.23 687.463 147.26 685.983 147.28L686.013 146.05L694.623 145.96L694.683 144.58C694.683 143.44 694.353 142.52 693.693 141.82C693.033 141.1 692.163 140.74 691.083 140.74C690.603 140.74 690.103 140.82 689.583 140.98C689.063 141.14 688.573 141.36 688.113 141.64C687.673 142.4 687.333 143.22 687.093 144.1C686.853 144.96 686.733 145.83 686.733 146.71C686.733 148.61 687.183 150.07 688.083 151.09C689.003 152.11 690.233 152.62 691.773 152.62C693.133 152.62 694.623 152.23 696.243 151.45L696.393 151.81C695.573 152.61 694.693 153.21 693.753 153.61C692.833 154.01 691.893 154.21 690.933 154.21ZM29.7521 197V196.46C30.0521 196.32 30.3721 196.2 30.7121 196.1C31.0521 195.98 31.4721 195.88 31.9721 195.8L32.2721 177.89L30.7121 176.03C31.2121 175.73 31.7221 175.49 32.2421 175.31C32.7821 175.11 33.3421 174.97 33.9221 174.89V195.86L36.2921 196.46V197H29.7521ZM37.665 197V196.46C37.985 196.32 38.325 196.19 38.685 196.07C39.045 195.95 39.435 195.86 39.855 195.8L40.125 185.21L38.625 183.41C39.105 183.11 39.615 182.87 40.155 182.69C40.695 182.49 41.255 182.35 41.835 182.27V195.86L44.205 196.46V197H37.665ZM41.205 176.24C41.465 176.48 41.695 176.77 41.895 177.11C42.095 177.45 42.215 177.79 42.255 178.13C42.035 178.39 41.755 178.62 41.415 178.82C41.075 179 40.735 179.12 40.395 179.18C40.135 178.94 39.905 178.66 39.705 178.34C39.505 178 39.365 177.66 39.285 177.32C39.525 177.04 39.815 176.8 40.155 176.6C40.495 176.4 40.845 176.28 41.205 176.24ZM45.5166 197V196.46C45.7966 196.32 46.1066 196.2 46.4466 196.1C46.7866 195.98 47.2066 195.88 47.7066 195.8L47.9766 185.21L46.4766 183.41C47.4166 182.83 48.4166 182.45 49.4766 182.27L49.6866 185V195.86L52.0566 196.46V197H45.5166ZM54.4866 197V196.46C54.7666 196.32 55.0766 196.2 55.4166 196.1C55.7566 195.98 56.1766 195.88 56.6766 195.8L56.9466 185.48L58.6566 184.61V195.86L61.0266 196.46V197H54.4866ZM49.5066 185.57L49.4766 185C50.0766 184.38 50.6966 183.86 51.3366 183.44C51.9766 183 52.6466 182.64 53.3466 182.36C53.4666 182.36 53.5766 182.36 53.6766 182.36C53.7766 182.34 53.8666 182.33 53.9466 182.33C54.8666 182.33 55.7166 182.52 56.4966 182.9C57.2766 183.26 57.9966 183.83 58.6566 184.61L56.9466 185.48C55.8666 184.5 54.6866 184.01 53.4066 184.01C52.1066 184.01 50.8066 184.53 49.5066 185.57ZM62.0665 197V196.46C62.3665 196.32 62.6865 196.2 63.0265 196.1C63.3665 195.98 63.7865 195.88 64.2865 195.8L64.5865 177.89L63.0565 176.03C63.5365 175.73 64.0365 175.49 64.5565 175.31C65.0965 175.11 65.6665 174.97 66.2665 174.89V195.86L68.6365 196.46V197H62.0665ZM73.5265 197.24L67.2865 189.38L72.9565 182.87H74.3965V183.14L68.6965 189.74L68.7265 188.45L75.5965 196.67C75.2965 196.79 74.9765 196.9 74.6365 197C74.2965 197.1 73.9265 197.18 73.5265 197.24ZM73.2565 184.04C72.6965 183.96 72.1765 183.85 71.6965 183.71C71.2165 183.55 70.7465 183.37 70.2865 183.17V182.57H75.6865V183.17L73.2565 184.04ZM82.115 197.21C81.455 197.21 80.755 197.16 80.015 197.06C79.295 196.96 78.545 196.8 77.765 196.58L78.455 195.05C79.375 195.29 80.275 195.47 81.155 195.59C82.035 195.71 82.895 195.77 83.735 195.77C84.055 195.77 84.375 195.76 84.695 195.74C85.015 195.72 85.335 195.69 85.655 195.65L84.635 196.04C85.095 195.88 85.495 195.58 85.835 195.14C86.195 194.7 86.375 194.23 86.375 193.73C86.375 193.23 86.175 192.8 85.775 192.44C85.375 192.08 84.855 191.75 84.215 191.45C83.595 191.13 82.935 190.81 82.235 190.49C81.535 190.15 80.865 189.79 80.225 189.41C79.605 189.03 79.095 188.57 78.695 188.03C78.295 187.49 78.095 186.84 78.095 186.08C78.095 184.9 78.615 183.98 79.655 183.32C80.695 182.66 82.045 182.33 83.705 182.33C84.305 182.33 84.925 182.37 85.565 182.45C86.205 182.53 86.865 182.66 87.545 182.84L87.035 184.43C86.195 184.19 85.385 184.02 84.605 183.92C83.845 183.82 83.105 183.77 82.385 183.77C82.065 183.77 81.745 183.78 81.425 183.8C81.105 183.82 80.775 183.85 80.435 183.89L81.125 183.59C80.685 183.79 80.355 184.09 80.135 184.49C79.915 184.87 79.805 185.27 79.805 185.69C79.805 186.23 80.005 186.7 80.405 187.1C80.805 187.5 81.315 187.86 81.935 188.18C82.575 188.5 83.245 188.82 83.945 189.14C84.645 189.44 85.305 189.78 85.925 190.16C86.565 190.54 87.085 190.99 87.485 191.51C87.885 192.03 88.085 192.65 88.085 193.37C88.085 194.57 87.525 195.51 86.405 196.19C85.285 196.87 83.855 197.21 82.115 197.21ZM77.765 196.58L77.885 192.2H78.635L79.685 196.55L77.765 196.58ZM86.765 186.92L85.625 182.81L87.545 182.84L87.485 186.92H86.765ZM98.9276 180.32V182.6H104.118L103.998 183.8H98.9276V195.41L104.088 195.38C103.808 195.78 103.458 196.12 103.038 196.4C102.638 196.68 102.198 196.89 101.718 197.03C101.258 197.17 100.788 197.24 100.308 197.24C99.5676 197.24 98.8876 197.08 98.2676 196.76C97.6476 196.44 97.2076 195.97 96.9476 195.35L97.3076 183.8H95.1476V183.35C95.7076 182.79 96.2876 182.26 96.8876 181.76C97.5076 181.24 98.1876 180.76 98.9276 180.32ZM111.443 197.24C110.223 197.24 109.153 196.94 108.233 196.34C107.313 195.74 106.593 194.9 106.073 193.82C105.573 192.72 105.323 191.46 105.323 190.04C105.323 188.52 105.593 187.18 106.133 186.02C106.693 184.86 107.453 183.96 108.413 183.32C109.393 182.66 110.513 182.33 111.773 182.33C113.013 182.33 114.093 182.64 115.013 183.26C115.953 183.88 116.683 184.73 117.203 185.81C117.723 186.89 117.983 188.15 117.983 189.59C117.983 191.11 117.703 192.45 117.143 193.61C116.603 194.75 115.843 195.64 114.863 196.28C113.883 196.92 112.743 197.24 111.443 197.24ZM111.623 195.92C112.503 195.92 113.273 195.67 113.933 195.17C114.613 194.67 115.133 193.95 115.493 193.01C115.873 192.07 116.063 190.96 116.063 189.68C116.063 188.46 115.873 187.41 115.493 186.53C115.133 185.63 114.613 184.94 113.933 184.46C113.273 183.98 112.483 183.74 111.563 183.74C111.003 183.74 110.413 183.84 109.793 184.04C109.173 184.24 108.513 184.54 107.813 184.94L108.803 184.16C108.283 185.06 107.893 185.98 107.633 186.92C107.373 187.86 107.243 188.84 107.243 189.86C107.243 191.1 107.423 192.17 107.783 193.07C108.163 193.97 108.683 194.67 109.343 195.17C110.003 195.67 110.763 195.92 111.623 195.92ZM124.677 197V196.46C124.957 196.32 125.267 196.2 125.607 196.1C125.947 195.98 126.367 195.88 126.867 195.8L127.137 185.21L125.637 183.41C126.577 182.83 127.577 182.45 128.637 182.27L128.847 185V195.86L131.217 196.46V197H124.677ZM133.647 197V196.46C133.927 196.32 134.237 196.2 134.577 196.1C134.917 195.98 135.337 195.88 135.837 195.8L136.107 185.48L137.907 184.76L137.817 185.09V195.86L140.187 196.46V197H133.647ZM136.107 185.48C135.027 184.5 133.847 184.01 132.567 184.01C131.267 184.01 129.967 184.53 128.667 185.57L128.637 185C129.237 184.38 129.857 183.86 130.497 183.44C131.137 183 131.807 182.64 132.507 182.36C132.627 182.36 132.737 182.36 132.837 182.36C132.937 182.34 133.027 182.33 133.107 182.33C134.047 182.33 134.907 182.53 135.687 182.93C136.487 183.31 137.227 183.92 137.907 184.76L136.107 185.48ZM142.617 197V196.46C142.897 196.32 143.207 196.2 143.547 196.1C143.887 195.98 144.307 195.88 144.807 195.8L145.077 185.48L146.787 184.61V195.86L149.157 196.46V197H142.617ZM145.077 185.48C143.997 184.5 142.817 184.01 141.537 184.01C140.237 184.01 138.937 184.53 137.637 185.57L137.607 185C138.207 184.38 138.827 183.86 139.467 183.44C140.107 183 140.777 182.64 141.477 182.36C141.597 182.36 141.707 182.36 141.807 182.36C141.907 182.34 141.997 182.33 142.077 182.33C142.997 182.33 143.847 182.52 144.627 182.9C145.407 183.26 146.127 183.83 146.787 184.61L145.077 185.48ZM148.072 202.49L148.192 201.08L153.352 201.41C153.892 200.75 154.332 200.12 154.672 199.52C155.032 198.94 155.362 198.3 155.662 197.6C155.982 196.92 156.312 196.11 156.652 195.17L161.062 182.87H162.562L157.852 195.59C156.892 198.17 155.872 200.05 154.792 201.23C153.732 202.43 152.452 203.03 150.952 203.03C150.532 203.03 150.082 202.98 149.602 202.88C149.122 202.8 148.612 202.67 148.072 202.49ZM155.092 196.7L150.022 182.87H152.122L156.742 196.31L155.092 196.7ZM151.402 184.04C150.942 183.96 150.502 183.85 150.082 183.71C149.662 183.55 149.262 183.37 148.882 183.17V182.57H154.552V183.17L151.402 184.04ZM161.872 184.04C161.252 183.98 160.632 183.88 160.012 183.74C159.412 183.58 158.812 183.39 158.212 183.17V182.57H163.552V183.17L161.872 184.04ZM175.159 197.24C174.559 197.24 173.909 197.18 173.209 197.06C172.509 196.94 171.789 196.75 171.049 196.49L171.559 195.11C172.279 195.35 172.939 195.54 173.539 195.68C174.159 195.8 174.729 195.86 175.249 195.86C176.929 195.86 178.229 195.33 179.149 194.27C180.089 193.19 180.559 191.69 180.559 189.77C180.559 188.75 180.419 187.8 180.139 186.92C179.859 186.02 179.439 185.19 178.879 184.43L180.199 185.72C178.839 184.6 177.479 184.04 176.119 184.04C174.879 184.04 173.629 184.54 172.369 185.54V184.91C172.949 184.33 173.539 183.84 174.139 183.44C174.739 183.02 175.359 182.65 175.999 182.33C176.059 182.33 176.119 182.33 176.179 182.33C176.259 182.33 176.319 182.33 176.359 182.33C177.599 182.33 178.669 182.64 179.569 183.26C180.469 183.88 181.159 184.74 181.639 185.84C182.139 186.92 182.389 188.15 182.389 189.53C182.389 191.13 182.089 192.51 181.489 193.67C180.909 194.83 180.079 195.72 178.999 196.34C177.919 196.94 176.639 197.24 175.159 197.24ZM168.439 202.82V202.28C168.719 202.16 169.019 202.04 169.339 201.92C169.679 201.8 170.099 201.7 170.599 201.62L170.869 185.21L169.369 183.41C169.869 183.13 170.359 182.89 170.839 182.69C171.339 182.49 171.849 182.35 172.369 182.27L172.579 185V201.68L175.609 202.25V202.82H168.439ZM193.865 184.25C191.905 184.23 190.065 184.76 188.345 185.84V185.33C188.925 184.71 189.535 184.16 190.175 183.68C190.815 183.18 191.485 182.75 192.185 182.39C192.525 182.43 192.835 182.5 193.115 182.6C193.415 182.68 193.705 182.81 193.985 182.99L193.865 184.25ZM184.325 197V196.46C184.605 196.32 184.915 196.2 185.255 196.1C185.595 195.98 186.015 195.88 186.515 195.8L186.785 185.21L185.285 183.41C186.225 182.83 187.225 182.45 188.285 182.27L188.495 185.42V195.83L191.825 196.46V197H184.325ZM201.209 197.24C199.989 197.24 198.919 196.94 197.999 196.34C197.079 195.74 196.359 194.9 195.839 193.82C195.339 192.72 195.089 191.46 195.089 190.04C195.089 188.52 195.359 187.18 195.899 186.02C196.459 184.86 197.219 183.96 198.179 183.32C199.159 182.66 200.279 182.33 201.539 182.33C202.779 182.33 203.859 182.64 204.779 183.26C205.719 183.88 206.449 184.73 206.969 185.81C207.489 186.89 207.749 188.15 207.749 189.59C207.749 191.11 207.469 192.45 206.909 193.61C206.369 194.75 205.609 195.64 204.629 196.28C203.649 196.92 202.509 197.24 201.209 197.24ZM201.389 195.92C202.269 195.92 203.039 195.67 203.699 195.17C204.379 194.67 204.899 193.95 205.259 193.01C205.639 192.07 205.829 190.96 205.829 189.68C205.829 188.46 205.639 187.41 205.259 186.53C204.899 185.63 204.379 184.94 203.699 184.46C203.039 183.98 202.249 183.74 201.329 183.74C200.769 183.74 200.179 183.84 199.559 184.04C198.939 184.24 198.279 184.54 197.579 184.94L198.569 184.16C198.049 185.06 197.659 185.98 197.399 186.92C197.139 187.86 197.009 188.84 197.009 189.86C197.009 191.1 197.189 192.17 197.549 193.07C197.929 193.97 198.449 194.67 199.109 195.17C199.769 195.67 200.529 195.92 201.389 195.92ZM209.215 202.94L208.975 202.58L211.585 198.77L211.885 185.21L210.355 183.41C210.855 183.11 211.365 182.87 211.885 182.69C212.425 182.49 212.985 182.35 213.565 182.27V196.85C213.565 198.21 213.185 199.38 212.425 200.36C211.665 201.34 210.595 202.2 209.215 202.94ZM212.935 176.24C213.195 176.48 213.425 176.77 213.625 177.11C213.825 177.45 213.945 177.79 213.985 178.13C213.765 178.39 213.485 178.62 213.145 178.82C212.805 179 212.465 179.12 212.125 179.18C211.865 178.94 211.635 178.66 211.435 178.34C211.235 178 211.095 177.66 211.015 177.32C211.255 177.04 211.545 176.8 211.885 176.6C212.225 176.4 212.575 176.28 212.935 176.24ZM223.443 197.21C222.263 197.21 221.213 196.91 220.293 196.31C219.393 195.71 218.693 194.87 218.193 193.79C217.693 192.69 217.443 191.43 217.443 190.01C217.443 188.53 217.703 187.21 218.223 186.05C218.763 184.89 219.513 183.98 220.473 183.32C221.433 182.66 222.543 182.33 223.803 182.33C224.823 182.33 225.713 182.56 226.473 183.02C227.253 183.46 227.853 184.07 228.273 184.85C228.713 185.63 228.933 186.54 228.933 187.58L228.843 189.5C227.763 189.68 226.703 189.83 225.663 189.95C224.643 190.05 223.563 190.13 222.423 190.19C221.283 190.23 219.973 190.26 218.493 190.28L218.523 189.05L227.133 188.96L227.193 187.58C227.193 186.44 226.863 185.52 226.203 184.82C225.543 184.1 224.673 183.74 223.593 183.74C223.113 183.74 222.613 183.82 222.093 183.98C221.573 184.14 221.083 184.36 220.623 184.64C220.183 185.4 219.843 186.22 219.603 187.1C219.363 187.96 219.243 188.83 219.243 189.71C219.243 191.61 219.693 193.07 220.593 194.09C221.513 195.11 222.743 195.62 224.283 195.62C225.643 195.62 227.133 195.23 228.753 194.45L228.903 194.81C228.083 195.61 227.203 196.21 226.263 196.61C225.343 197.01 224.403 197.21 223.443 197.21ZM237.004 197.21C235.864 197.21 234.854 196.9 233.974 196.28C233.094 195.66 232.404 194.8 231.904 193.7C231.404 192.6 231.154 191.33 231.154 189.89C231.154 188.35 231.434 187.01 231.994 185.87C232.574 184.73 233.364 183.86 234.364 183.26C235.364 182.64 236.494 182.33 237.754 182.33C238.374 182.33 238.994 182.4 239.614 182.54C240.254 182.68 240.864 182.89 241.444 183.17L241.084 184.67C239.924 184.09 238.654 183.8 237.274 183.8C236.654 183.8 236.044 183.89 235.444 184.07C234.864 184.25 234.304 184.5 233.764 184.82L234.574 184.13C234.094 184.91 233.714 185.78 233.434 186.74C233.174 187.7 233.044 188.67 233.044 189.65C233.044 190.89 233.254 191.96 233.674 192.86C234.094 193.74 234.674 194.42 235.414 194.9C236.154 195.38 236.994 195.62 237.934 195.62C238.494 195.62 239.084 195.53 239.704 195.35C240.324 195.17 240.954 194.89 241.594 194.51L241.744 194.87C240.324 196.43 238.744 197.21 237.004 197.21ZM240.724 187.22L239.584 183.17H241.444L241.354 187.22H240.724ZM247.551 180.32V182.6H252.741L252.621 183.8H247.551V195.41L252.711 195.38C252.431 195.78 252.081 196.12 251.661 196.4C251.261 196.68 250.821 196.89 250.341 197.03C249.881 197.17 249.411 197.24 248.931 197.24C248.191 197.24 247.511 197.08 246.891 196.76C246.271 196.44 245.831 195.97 245.571 195.35L245.931 183.8H243.771V183.35C244.331 182.79 244.911 182.26 245.511 181.76C246.131 181.24 246.811 180.76 247.551 180.32ZM259.185 197.21C258.525 197.21 257.825 197.16 257.085 197.06C256.365 196.96 255.615 196.8 254.835 196.58L255.525 195.05C256.445 195.29 257.345 195.47 258.225 195.59C259.105 195.71 259.965 195.77 260.805 195.77C261.125 195.77 261.445 195.76 261.765 195.74C262.085 195.72 262.405 195.69 262.725 195.65L261.705 196.04C262.165 195.88 262.565 195.58 262.905 195.14C263.265 194.7 263.445 194.23 263.445 193.73C263.445 193.23 263.245 192.8 262.845 192.44C262.445 192.08 261.925 191.75 261.285 191.45C260.665 191.13 260.005 190.81 259.305 190.49C258.605 190.15 257.935 189.79 257.295 189.41C256.675 189.03 256.165 188.57 255.765 188.03C255.365 187.49 255.165 186.84 255.165 186.08C255.165 184.9 255.685 183.98 256.725 183.32C257.765 182.66 259.115 182.33 260.775 182.33C261.375 182.33 261.995 182.37 262.635 182.45C263.275 182.53 263.935 182.66 264.615 182.84L264.105 184.43C263.265 184.19 262.455 184.02 261.675 183.92C260.915 183.82 260.175 183.77 259.455 183.77C259.135 183.77 258.815 183.78 258.495 183.8C258.175 183.82 257.845 183.85 257.505 183.89L258.195 183.59C257.755 183.79 257.425 184.09 257.205 184.49C256.985 184.87 256.875 185.27 256.875 185.69C256.875 186.23 257.075 186.7 257.475 187.1C257.875 187.5 258.385 187.86 259.005 188.18C259.645 188.5 260.315 188.82 261.015 189.14C261.715 189.44 262.375 189.78 262.995 190.16C263.635 190.54 264.155 190.99 264.555 191.51C264.955 192.03 265.155 192.65 265.155 193.37C265.155 194.57 264.595 195.51 263.475 196.19C262.355 196.87 260.925 197.21 259.185 197.21ZM254.835 196.58L254.955 192.2H255.705L256.755 196.55L254.835 196.58ZM263.835 186.92L262.695 182.81L264.615 182.84L264.555 186.92H263.835ZM269.33 199.88L270.08 195.95L272.15 195.92C271.89 196.6 271.58 197.28 271.22 197.96C270.88 198.64 270.48 199.32 270.02 200L269.33 199.88ZM270.29 197L269.3 195.23C269.62 194.95 269.93 194.74 270.23 194.6C270.53 194.44 270.86 194.31 271.22 194.21C271.44 194.45 271.62 194.71 271.76 194.99C271.92 195.25 272.05 195.56 272.15 195.92L270.29 197ZM279.625 197V196.46C279.925 196.32 280.245 196.2 280.585 196.1C280.925 195.98 281.345 195.88 281.845 195.8L282.145 177.89L280.585 176.03C281.085 175.73 281.595 175.49 282.115 175.31C282.655 175.11 283.215 174.97 283.795 174.89V195.86L286.165 196.46V197H279.625ZM294.048 197.21C292.868 197.21 291.818 196.91 290.898 196.31C289.998 195.71 289.298 194.87 288.798 193.79C288.298 192.69 288.048 191.43 288.048 190.01C288.048 188.53 288.308 187.21 288.828 186.05C289.368 184.89 290.118 183.98 291.078 183.32C292.038 182.66 293.148 182.33 294.408 182.33C295.428 182.33 296.318 182.56 297.078 183.02C297.858 183.46 298.458 184.07 298.878 184.85C299.318 185.63 299.538 186.54 299.538 187.58L299.448 189.5C298.368 189.68 297.308 189.83 296.268 189.95C295.248 190.05 294.168 190.13 293.028 190.19C291.888 190.23 290.578 190.26 289.098 190.28L289.128 189.05L297.738 188.96L297.798 187.58C297.798 186.44 297.468 185.52 296.808 184.82C296.148 184.1 295.278 183.74 294.198 183.74C293.718 183.74 293.218 183.82 292.698 183.98C292.178 184.14 291.688 184.36 291.228 184.64C290.788 185.4 290.448 186.22 290.208 187.1C289.968 187.96 289.848 188.83 289.848 189.71C289.848 191.61 290.298 193.07 291.198 194.09C292.118 195.11 293.348 195.62 294.888 195.62C296.248 195.62 297.738 195.23 299.358 194.45L299.508 194.81C298.688 195.61 297.808 196.21 296.868 196.61C295.948 197.01 295.008 197.21 294.048 197.21ZM307.759 197.21C306.579 197.21 305.529 196.91 304.609 196.31C303.709 195.71 303.009 194.87 302.509 193.79C302.009 192.69 301.759 191.43 301.759 190.01C301.759 188.53 302.019 187.21 302.539 186.05C303.079 184.89 303.829 183.98 304.789 183.32C305.749 182.66 306.859 182.33 308.119 182.33C309.139 182.33 310.029 182.56 310.789 183.02C311.569 183.46 312.169 184.07 312.589 184.85C313.029 185.63 313.249 186.54 313.249 187.58L313.159 189.5C312.079 189.68 311.019 189.83 309.979 189.95C308.959 190.05 307.879 190.13 306.739 190.19C305.599 190.23 304.289 190.26 302.809 190.28L302.839 189.05L311.449 188.96L311.509 187.58C311.509 186.44 311.179 185.52 310.519 184.82C309.859 184.1 308.989 183.74 307.909 183.74C307.429 183.74 306.929 183.82 306.409 183.98C305.889 184.14 305.399 184.36 304.939 184.64C304.499 185.4 304.159 186.22 303.919 187.1C303.679 187.96 303.559 188.83 303.559 189.71C303.559 191.61 304.009 193.07 304.909 194.09C305.829 195.11 307.059 195.62 308.599 195.62C309.959 195.62 311.449 195.23 313.069 194.45L313.219 194.81C312.399 195.61 311.519 196.21 310.579 196.61C309.659 197.01 308.719 197.21 307.759 197.21ZM319.299 180.32V182.6H324.489L324.369 183.8H319.299V195.41L324.459 195.38C324.179 195.78 323.829 196.12 323.409 196.4C323.009 196.68 322.569 196.89 322.089 197.03C321.629 197.17 321.159 197.24 320.679 197.24C319.939 197.24 319.259 197.08 318.639 196.76C318.019 196.44 317.579 195.97 317.319 195.35L317.679 183.8H315.519V183.35C316.079 182.79 316.659 182.26 317.259 181.76C317.879 181.24 318.559 180.76 319.299 180.32ZM331.545 197.21C330.405 197.21 329.395 196.9 328.515 196.28C327.635 195.66 326.945 194.8 326.445 193.7C325.945 192.6 325.695 191.33 325.695 189.89C325.695 188.35 325.975 187.01 326.535 185.87C327.115 184.73 327.905 183.86 328.905 183.26C329.905 182.64 331.035 182.33 332.295 182.33C332.915 182.33 333.535 182.4 334.155 182.54C334.795 182.68 335.405 182.89 335.985 183.17L335.625 184.67C334.465 184.09 333.195 183.8 331.815 183.8C331.195 183.8 330.585 183.89 329.985 184.07C329.405 184.25 328.845 184.5 328.305 184.82L329.115 184.13C328.635 184.91 328.255 185.78 327.975 186.74C327.715 187.7 327.585 188.67 327.585 189.65C327.585 190.89 327.795 191.96 328.215 192.86C328.635 193.74 329.215 194.42 329.955 194.9C330.695 195.38 331.535 195.62 332.475 195.62C333.035 195.62 333.625 195.53 334.245 195.35C334.865 195.17 335.495 194.89 336.135 194.51L336.285 194.87C334.865 196.43 333.285 197.21 331.545 197.21ZM335.265 187.22L334.125 183.17H335.985L335.895 187.22H335.265ZM344.031 197.24C342.811 197.24 341.741 196.94 340.821 196.34C339.901 195.74 339.181 194.9 338.661 193.82C338.161 192.72 337.911 191.46 337.911 190.04C337.911 188.52 338.181 187.18 338.721 186.02C339.281 184.86 340.041 183.96 341.001 183.32C341.981 182.66 343.101 182.33 344.361 182.33C345.601 182.33 346.681 182.64 347.601 183.26C348.541 183.88 349.271 184.73 349.791 185.81C350.311 186.89 350.571 188.15 350.571 189.59C350.571 191.11 350.291 192.45 349.731 193.61C349.191 194.75 348.431 195.64 347.451 196.28C346.471 196.92 345.331 197.24 344.031 197.24ZM344.211 195.92C345.091 195.92 345.861 195.67 346.521 195.17C347.201 194.67 347.721 193.95 348.081 193.01C348.461 192.07 348.651 190.96 348.651 189.68C348.651 188.46 348.461 187.41 348.081 186.53C347.721 185.63 347.201 184.94 346.521 184.46C345.861 183.98 345.071 183.74 344.151 183.74C343.591 183.74 343.001 183.84 342.381 184.04C341.761 184.24 341.101 184.54 340.401 184.94L341.391 184.16C340.871 185.06 340.481 185.98 340.221 186.92C339.961 187.86 339.831 188.84 339.831 189.86C339.831 191.1 340.011 192.17 340.371 193.07C340.751 193.97 341.271 194.67 341.931 195.17C342.591 195.67 343.351 195.92 344.211 195.92ZM359.087 197.24C357.887 197.24 356.837 196.95 355.937 196.37C355.037 195.77 354.337 194.93 353.837 193.85C353.337 192.75 353.087 191.48 353.087 190.04C353.087 187.62 353.747 185.73 355.067 184.37C356.387 183.01 358.157 182.33 360.377 182.33C360.977 182.33 361.597 182.38 362.237 182.48C362.877 182.58 363.537 182.73 364.217 182.93L363.857 184.55C362.417 183.99 361.087 183.71 359.867 183.71C359.107 183.71 358.377 183.82 357.677 184.04C356.977 184.24 356.297 184.54 355.637 184.94L356.387 184.37C355.927 185.09 355.567 185.93 355.307 186.89C355.067 187.85 354.947 188.85 354.947 189.89C354.947 191.09 355.127 192.12 355.487 192.98C355.867 193.82 356.377 194.46 357.017 194.9C357.677 195.32 358.417 195.53 359.237 195.53C359.817 195.53 360.427 195.41 361.067 195.17C361.727 194.93 362.387 194.55 363.047 194.03V194.66C362.527 195.16 361.957 195.64 361.337 196.1C360.737 196.54 360.077 196.92 359.357 197.24C359.317 197.24 359.277 197.24 359.237 197.24C359.197 197.24 359.147 197.24 359.087 197.24ZM365.477 197.15C365.097 197.15 364.717 197.05 364.337 196.85C363.957 196.63 363.627 196.32 363.347 195.92C363.087 195.5 362.907 194.99 362.807 194.39L363.077 177.89L361.667 176C362.127 175.72 362.597 175.49 363.077 175.31C363.577 175.11 364.137 174.97 364.757 174.89V195.32L367.757 195.2C367.637 195.64 367.457 196.01 367.217 196.31C366.977 196.59 366.707 196.8 366.407 196.94C366.107 197.08 365.797 197.15 365.477 197.15ZM363.737 174.47L363.707 174.44H363.737V174.47ZM375.288 197.21C374.108 197.21 373.058 196.91 372.138 196.31C371.238 195.71 370.538 194.87 370.038 193.79C369.538 192.69 369.288 191.43 369.288 190.01C369.288 188.53 369.548 187.21 370.068 186.05C370.608 184.89 371.358 183.98 372.318 183.32C373.278 182.66 374.388 182.33 375.648 182.33C376.668 182.33 377.558 182.56 378.318 183.02C379.098 183.46 379.698 184.07 380.118 184.85C380.558 185.63 380.778 186.54 380.778 187.58L380.688 189.5C379.608 189.68 378.548 189.83 377.508 189.95C376.488 190.05 375.408 190.13 374.268 190.19C373.128 190.23 371.818 190.26 370.338 190.28L370.368 189.05L378.978 188.96L379.038 187.58C379.038 186.44 378.708 185.52 378.048 184.82C377.388 184.1 376.518 183.74 375.438 183.74C374.958 183.74 374.458 183.82 373.938 183.98C373.418 184.14 372.928 184.36 372.468 184.64C372.028 185.4 371.688 186.22 371.448 187.1C371.208 187.96 371.088 188.83 371.088 189.71C371.088 191.61 371.538 193.07 372.438 194.09C373.358 195.11 374.588 195.62 376.128 195.62C377.488 195.62 378.978 195.23 380.598 194.45L380.748 194.81C379.928 195.61 379.048 196.21 378.108 196.61C377.188 197.01 376.248 197.21 375.288 197.21ZM392.926 197.21C392.266 197.21 391.566 197.16 390.826 197.06C390.106 196.96 389.356 196.8 388.576 196.58L389.266 195.05C390.186 195.29 391.086 195.47 391.966 195.59C392.846 195.71 393.706 195.77 394.546 195.77C394.866 195.77 395.186 195.76 395.506 195.74C395.826 195.72 396.146 195.69 396.466 195.65L395.446 196.04C395.906 195.88 396.306 195.58 396.646 195.14C397.006 194.7 397.186 194.23 397.186 193.73C397.186 193.23 396.986 192.8 396.586 192.44C396.186 192.08 395.666 191.75 395.026 191.45C394.406 191.13 393.746 190.81 393.046 190.49C392.346 190.15 391.676 189.79 391.036 189.41C390.416 189.03 389.906 188.57 389.506 188.03C389.106 187.49 388.906 186.84 388.906 186.08C388.906 184.9 389.426 183.98 390.466 183.32C391.506 182.66 392.856 182.33 394.516 182.33C395.116 182.33 395.736 182.37 396.376 182.45C397.016 182.53 397.676 182.66 398.356 182.84L397.846 184.43C397.006 184.19 396.196 184.02 395.416 183.92C394.656 183.82 393.916 183.77 393.196 183.77C392.876 183.77 392.556 183.78 392.236 183.8C391.916 183.82 391.586 183.85 391.246 183.89L391.936 183.59C391.496 183.79 391.166 184.09 390.946 184.49C390.726 184.87 390.616 185.27 390.616 185.69C390.616 186.23 390.816 186.7 391.216 187.1C391.616 187.5 392.126 187.86 392.746 188.18C393.386 188.5 394.056 188.82 394.756 189.14C395.456 189.44 396.116 189.78 396.736 190.16C397.376 190.54 397.896 190.99 398.296 191.51C398.696 192.03 398.896 192.65 398.896 193.37C398.896 194.57 398.336 195.51 397.216 196.19C396.096 196.87 394.666 197.21 392.926 197.21ZM388.576 196.58L388.696 192.2H389.446L390.496 196.55L388.576 196.58ZM397.576 186.92L396.436 182.81L398.356 182.84L398.296 186.92H397.576ZM407.811 197.24C406.591 197.24 405.521 196.94 404.601 196.34C403.681 195.74 402.961 194.9 402.441 193.82C401.941 192.72 401.691 191.46 401.691 190.04C401.691 188.52 401.961 187.18 402.501 186.02C403.061 184.86 403.821 183.96 404.781 183.32C405.761 182.66 406.881 182.33 408.141 182.33C409.381 182.33 410.461 182.64 411.381 183.26C412.321 183.88 413.051 184.73 413.571 185.81C414.091 186.89 414.351 188.15 414.351 189.59C414.351 191.11 414.071 192.45 413.511 193.61C412.971 194.75 412.211 195.64 411.231 196.28C410.251 196.92 409.111 197.24 407.811 197.24ZM407.991 195.92C408.871 195.92 409.641 195.67 410.301 195.17C410.981 194.67 411.501 193.95 411.861 193.01C412.241 192.07 412.431 190.96 412.431 189.68C412.431 188.46 412.241 187.41 411.861 186.53C411.501 185.63 410.981 184.94 410.301 184.46C409.641 183.98 408.851 183.74 407.931 183.74C407.371 183.74 406.781 183.84 406.161 184.04C405.541 184.24 404.881 184.54 404.181 184.94L405.171 184.16C404.651 185.06 404.261 185.98 404.001 186.92C403.741 187.86 403.611 188.84 403.611 189.86C403.611 191.1 403.791 192.17 404.151 193.07C404.531 193.97 405.051 194.67 405.711 195.17C406.371 195.67 407.131 195.92 407.991 195.92ZM416.236 197V196.46C416.536 196.32 416.856 196.2 417.196 196.1C417.536 195.98 417.956 195.88 418.456 195.8L418.756 177.89L417.196 176.03C417.696 175.73 418.206 175.49 418.726 175.31C419.266 175.11 419.826 174.97 420.406 174.89V195.86L422.776 196.46V197H416.236ZM436.719 195.32L439.779 195.2C439.659 195.64 439.469 196.01 439.209 196.31C438.969 196.59 438.689 196.8 438.369 196.94C438.069 197.08 437.759 197.15 437.439 197.15C437.059 197.15 436.679 197.05 436.299 196.85C435.919 196.63 435.599 196.32 435.339 195.92C435.079 195.5 434.889 194.99 434.769 194.39L435.009 185.21L433.509 183.41C434.529 182.81 435.599 182.43 436.719 182.27V195.32ZM431.109 197.21C430.989 197.23 430.879 197.24 430.779 197.24C430.699 197.24 430.609 197.24 430.509 197.24C429.589 197.24 428.739 197.05 427.959 196.67C427.199 196.29 426.479 195.7 425.799 194.9L427.509 194C428.649 195.02 429.859 195.53 431.139 195.53C432.419 195.53 433.699 195.02 434.979 194L435.009 194.57C434.429 195.19 433.809 195.72 433.149 196.16C432.509 196.58 431.829 196.93 431.109 197.21ZM425.799 194.9L426.069 185.21L424.539 183.41C425.599 182.81 426.669 182.43 427.749 182.27V194.51L425.799 194.9ZM444.601 180.32V182.6H449.791L449.671 183.8H444.601V195.41L449.761 195.38C449.481 195.78 449.131 196.12 448.711 196.4C448.311 196.68 447.871 196.89 447.391 197.03C446.931 197.17 446.461 197.24 445.981 197.24C445.241 197.24 444.561 197.08 443.941 196.76C443.321 196.44 442.881 195.97 442.621 195.35L442.981 183.8H440.821V183.35C441.381 182.79 441.961 182.26 442.561 181.76C443.181 181.24 443.861 180.76 444.601 180.32ZM450.956 197V196.46C451.276 196.32 451.616 196.19 451.976 196.07C452.336 195.95 452.726 195.86 453.146 195.8L453.416 185.21L451.916 183.41C452.396 183.11 452.906 182.87 453.446 182.69C453.986 182.49 454.546 182.35 455.126 182.27V195.86L457.496 196.46V197H450.956ZM454.496 176.24C454.756 176.48 454.986 176.77 455.186 177.11C455.386 177.45 455.506 177.79 455.546 178.13C455.326 178.39 455.046 178.62 454.706 178.82C454.366 179 454.026 179.12 453.686 179.18C453.426 178.94 453.196 178.66 452.996 178.34C452.796 178 452.656 177.66 452.576 177.32C452.816 177.04 453.106 176.8 453.446 176.6C453.786 176.4 454.136 176.28 454.496 176.24ZM465.438 197.24C464.218 197.24 463.148 196.94 462.228 196.34C461.308 195.74 460.588 194.9 460.068 193.82C459.568 192.72 459.318 191.46 459.318 190.04C459.318 188.52 459.588 187.18 460.128 186.02C460.688 184.86 461.448 183.96 462.408 183.32C463.388 182.66 464.508 182.33 465.768 182.33C467.008 182.33 468.088 182.64 469.008 183.26C469.948 183.88 470.678 184.73 471.198 185.81C471.718 186.89 471.978 188.15 471.978 189.59C471.978 191.11 471.698 192.45 471.138 193.61C470.598 194.75 469.838 195.64 468.858 196.28C467.878 196.92 466.738 197.24 465.438 197.24ZM465.618 195.92C466.498 195.92 467.268 195.67 467.928 195.17C468.608 194.67 469.128 193.95 469.488 193.01C469.868 192.07 470.058 190.96 470.058 189.68C470.058 188.46 469.868 187.41 469.488 186.53C469.128 185.63 468.608 184.94 467.928 184.46C467.268 183.98 466.478 183.74 465.558 183.74C464.998 183.74 464.408 183.84 463.788 184.04C463.168 184.24 462.508 184.54 461.808 184.94L462.798 184.16C462.278 185.06 461.888 185.98 461.628 186.92C461.368 187.86 461.238 188.84 461.238 189.86C461.238 191.1 461.418 192.17 461.778 193.07C462.158 193.97 462.678 194.67 463.338 195.17C463.998 195.67 464.758 195.92 465.618 195.92ZM473.954 197V196.46C474.234 196.32 474.544 196.2 474.884 196.1C475.224 195.98 475.644 195.88 476.144 195.8L476.414 185.21L474.914 183.41C475.854 182.83 476.854 182.45 477.914 182.27L478.124 185V195.86L480.494 196.46V197H473.954ZM482.924 197V196.46C483.204 196.32 483.514 196.2 483.854 196.1C484.194 195.98 484.614 195.88 485.114 195.8L485.384 185.48L487.094 184.61V195.86L489.464 196.46V197H482.924ZM477.944 185.57L477.914 185C478.514 184.38 479.134 183.86 479.774 183.44C480.414 183 481.084 182.64 481.784 182.36C481.904 182.36 482.014 182.36 482.114 182.36C482.214 182.34 482.304 182.33 482.384 182.33C483.304 182.33 484.154 182.52 484.934 182.9C485.714 183.26 486.434 183.83 487.094 184.61L485.384 185.48C484.304 184.5 483.124 184.01 481.844 184.01C480.544 184.01 479.244 184.53 477.944 185.57ZM495.904 197.21C495.244 197.21 494.544 197.16 493.804 197.06C493.084 196.96 492.334 196.8 491.554 196.58L492.244 195.05C493.164 195.29 494.064 195.47 494.944 195.59C495.824 195.71 496.684 195.77 497.524 195.77C497.844 195.77 498.164 195.76 498.484 195.74C498.804 195.72 499.124 195.69 499.444 195.65L498.424 196.04C498.884 195.88 499.284 195.58 499.624 195.14C499.984 194.7 500.164 194.23 500.164 193.73C500.164 193.23 499.964 192.8 499.564 192.44C499.164 192.08 498.644 191.75 498.004 191.45C497.384 191.13 496.724 190.81 496.024 190.49C495.324 190.15 494.654 189.79 494.014 189.41C493.394 189.03 492.884 188.57 492.484 188.03C492.084 187.49 491.884 186.84 491.884 186.08C491.884 184.9 492.404 183.98 493.444 183.32C494.484 182.66 495.834 182.33 497.494 182.33C498.094 182.33 498.714 182.37 499.354 182.45C499.994 182.53 500.654 182.66 501.334 182.84L500.824 184.43C499.984 184.19 499.174 184.02 498.394 183.92C497.634 183.82 496.894 183.77 496.174 183.77C495.854 183.77 495.534 183.78 495.214 183.8C494.894 183.82 494.564 183.85 494.224 183.89L494.914 183.59C494.474 183.79 494.144 184.09 493.924 184.49C493.704 184.87 493.594 185.27 493.594 185.69C493.594 186.23 493.794 186.7 494.194 187.1C494.594 187.5 495.104 187.86 495.724 188.18C496.364 188.5 497.034 188.82 497.734 189.14C498.434 189.44 499.094 189.78 499.714 190.16C500.354 190.54 500.874 190.99 501.274 191.51C501.674 192.03 501.874 192.65 501.874 193.37C501.874 194.57 501.314 195.51 500.194 196.19C499.074 196.87 497.644 197.21 495.904 197.21ZM491.554 196.58L491.674 192.2H492.424L493.474 196.55L491.554 196.58ZM500.554 186.92L499.414 182.81L501.334 182.84L501.274 186.92H500.554ZM506.049 199.88L506.799 195.95L508.869 195.92C508.609 196.6 508.299 197.28 507.939 197.96C507.599 198.64 507.199 199.32 506.739 200L506.049 199.88ZM507.009 197L506.019 195.23C506.339 194.95 506.649 194.74 506.949 194.6C507.249 194.44 507.579 194.31 507.939 194.21C508.159 194.45 508.339 194.71 508.479 194.99C508.639 195.25 508.769 195.56 508.869 195.92L507.009 197ZM528.104 197.15C527.524 197.15 526.984 196.93 526.484 196.49C526.004 196.05 525.664 195.4 525.464 194.54L525.764 185.33C524.464 184.23 522.874 183.68 520.994 183.68C520.614 183.68 520.224 183.71 519.824 183.77C519.444 183.83 519.064 183.91 518.684 184.01L519.614 183.5L519.134 187.64C518.594 187.5 518.184 187.26 517.904 186.92C517.624 186.58 517.484 186.18 517.484 185.72C517.484 185.08 517.694 184.51 518.114 184.01C518.554 183.49 519.144 183.08 519.884 182.78C520.624 182.48 521.444 182.33 522.344 182.33C523.344 182.33 524.284 182.53 525.164 182.93C526.044 183.31 526.814 183.87 527.474 184.61V195.26L530.504 195.14C530.404 195.58 530.224 195.95 529.964 196.25C529.724 196.55 529.444 196.78 529.124 196.94C528.804 197.08 528.464 197.15 528.104 197.15ZM521.324 197.3C520.064 197.28 519.044 196.91 518.264 196.19C517.484 195.47 517.094 194.55 517.094 193.43C517.094 192.87 517.214 192.38 517.454 191.96C517.714 191.54 518.174 191.16 518.834 190.82C519.494 190.46 520.424 190.11 521.624 189.77C522.824 189.41 524.364 189.02 526.244 188.6V189.8L518.774 191.36L519.404 191.03C519.304 191.33 519.224 191.65 519.164 191.99C519.104 192.33 519.074 192.65 519.074 192.95C519.074 193.79 519.284 194.45 519.704 194.93C520.144 195.39 520.784 195.62 521.624 195.62C522.264 195.62 522.944 195.49 523.664 195.23C524.384 194.95 525.144 194.53 525.944 193.97V194.48C525.264 195.12 524.554 195.67 523.814 196.13C523.094 196.59 522.264 196.98 521.324 197.3ZM531.347 197V196.46C531.627 196.32 531.937 196.2 532.277 196.1C532.617 195.98 533.037 195.88 533.537 195.8L533.807 185.21L532.307 183.41C533.247 182.83 534.247 182.45 535.307 182.27L535.517 185V195.86L537.887 196.46V197H531.347ZM540.317 197V196.46C540.597 196.32 540.907 196.2 541.247 196.1C541.587 195.98 542.007 195.88 542.507 195.8L542.777 185.48L544.487 184.61V195.86L546.857 196.46V197H540.317ZM535.337 185.57L535.307 185C535.907 184.38 536.527 183.86 537.167 183.44C537.807 183 538.477 182.64 539.177 182.36C539.297 182.36 539.407 182.36 539.507 182.36C539.607 182.34 539.697 182.33 539.777 182.33C540.697 182.33 541.547 182.52 542.327 182.9C543.107 183.26 543.827 183.83 544.487 184.61L542.777 185.48C541.697 184.5 540.517 184.01 539.237 184.01C537.937 184.01 536.637 184.53 535.337 185.57ZM554.527 197.24C553.327 197.24 552.277 196.95 551.377 196.37C550.477 195.77 549.777 194.93 549.277 193.85C548.777 192.75 548.527 191.48 548.527 190.04C548.527 187.62 549.187 185.73 550.507 184.37C551.827 183.01 553.597 182.33 555.817 182.33C556.417 182.33 557.037 182.38 557.677 182.48C558.317 182.58 558.977 182.73 559.657 182.93L559.297 184.55C557.857 183.99 556.527 183.71 555.307 183.71C554.547 183.71 553.817 183.82 553.117 184.04C552.417 184.24 551.737 184.54 551.077 184.94L551.827 184.37C551.367 185.09 551.007 185.93 550.747 186.89C550.507 187.85 550.387 188.85 550.387 189.89C550.387 191.09 550.567 192.12 550.927 192.98C551.307 193.82 551.817 194.46 552.457 194.9C553.117 195.32 553.857 195.53 554.677 195.53C555.257 195.53 555.867 195.41 556.507 195.17C557.167 194.93 557.827 194.55 558.487 194.03V194.66C557.967 195.16 557.397 195.64 556.777 196.1C556.177 196.54 555.517 196.92 554.797 197.24C554.757 197.24 554.717 197.24 554.677 197.24C554.637 197.24 554.587 197.24 554.527 197.24ZM560.917 197.15C560.537 197.15 560.157 197.05 559.777 196.85C559.397 196.63 559.067 196.32 558.787 195.92C558.527 195.5 558.347 194.99 558.247 194.39L558.517 177.89L557.107 176C557.567 175.72 558.037 175.49 558.517 175.31C559.017 175.11 559.577 174.97 560.197 174.89V195.32L563.197 195.2C563.077 195.64 562.897 196.01 562.657 196.31C562.417 196.59 562.147 196.8 561.847 196.94C561.547 197.08 561.237 197.15 560.917 197.15ZM559.177 174.47L559.147 174.44H559.177V174.47ZM578.445 184.25C576.485 184.23 574.645 184.76 572.925 185.84V185.33C573.505 184.71 574.115 184.16 574.755 183.68C575.395 183.18 576.065 182.75 576.765 182.39C577.105 182.43 577.415 182.5 577.695 182.6C577.995 182.68 578.285 182.81 578.565 182.99L578.445 184.25ZM568.905 197V196.46C569.185 196.32 569.495 196.2 569.835 196.1C570.175 195.98 570.595 195.88 571.095 195.8L571.365 185.21L569.865 183.41C570.805 182.83 571.805 182.45 572.865 182.27L573.075 185.42V195.83L576.405 196.46V197H568.905ZM585.669 197.21C584.489 197.21 583.439 196.91 582.519 196.31C581.619 195.71 580.919 194.87 580.419 193.79C579.919 192.69 579.669 191.43 579.669 190.01C579.669 188.53 579.929 187.21 580.449 186.05C580.989 184.89 581.739 183.98 582.699 183.32C583.659 182.66 584.769 182.33 586.029 182.33C587.049 182.33 587.939 182.56 588.699 183.02C589.479 183.46 590.079 184.07 590.499 184.85C590.939 185.63 591.159 186.54 591.159 187.58L591.069 189.5C589.989 189.68 588.929 189.83 587.889 189.95C586.869 190.05 585.789 190.13 584.649 190.19C583.509 190.23 582.199 190.26 580.719 190.28L580.749 189.05L589.359 188.96L589.419 187.58C589.419 186.44 589.089 185.52 588.429 184.82C587.769 184.1 586.899 183.74 585.819 183.74C585.339 183.74 584.839 183.82 584.319 183.98C583.799 184.14 583.309 184.36 582.849 184.64C582.409 185.4 582.069 186.22 581.829 187.1C581.589 187.96 581.469 188.83 581.469 189.71C581.469 191.61 581.919 193.07 582.819 194.09C583.739 195.11 584.969 195.62 586.509 195.62C587.869 195.62 589.359 195.23 590.979 194.45L591.129 194.81C590.309 195.61 589.429 196.21 588.489 196.61C587.569 197.01 586.629 197.21 585.669 197.21ZM598.619 197.21C597.959 197.21 597.259 197.16 596.519 197.06C595.799 196.96 595.049 196.8 594.269 196.58L594.959 195.05C595.879 195.29 596.779 195.47 597.659 195.59C598.539 195.71 599.399 195.77 600.239 195.77C600.559 195.77 600.879 195.76 601.199 195.74C601.519 195.72 601.839 195.69 602.159 195.65L601.139 196.04C601.599 195.88 601.999 195.58 602.339 195.14C602.699 194.7 602.879 194.23 602.879 193.73C602.879 193.23 602.679 192.8 602.279 192.44C601.879 192.08 601.359 191.75 600.719 191.45C600.099 191.13 599.439 190.81 598.739 190.49C598.039 190.15 597.369 189.79 596.729 189.41C596.109 189.03 595.599 188.57 595.199 188.03C594.799 187.49 594.599 186.84 594.599 186.08C594.599 184.9 595.119 183.98 596.159 183.32C597.199 182.66 598.549 182.33 600.209 182.33C600.809 182.33 601.429 182.37 602.069 182.45C602.709 182.53 603.369 182.66 604.049 182.84L603.539 184.43C602.699 184.19 601.889 184.02 601.109 183.92C600.349 183.82 599.609 183.77 598.889 183.77C598.569 183.77 598.249 183.78 597.929 183.8C597.609 183.82 597.279 183.85 596.939 183.89L597.629 183.59C597.189 183.79 596.859 184.09 596.639 184.49C596.419 184.87 596.309 185.27 596.309 185.69C596.309 186.23 596.509 186.7 596.909 187.1C597.309 187.5 597.819 187.86 598.439 188.18C599.079 188.5 599.749 188.82 600.449 189.14C601.149 189.44 601.809 189.78 602.429 190.16C603.069 190.54 603.589 190.99 603.989 191.51C604.389 192.03 604.589 192.65 604.589 193.37C604.589 194.57 604.029 195.51 602.909 196.19C601.789 196.87 600.359 197.21 598.619 197.21ZM594.269 196.58L594.389 192.2H595.139L596.189 196.55L594.269 196.58ZM603.269 186.92L602.129 182.81L604.049 182.84L603.989 186.92H603.269ZM619.444 195.32L622.504 195.2C622.384 195.64 622.194 196.01 621.934 196.31C621.694 196.59 621.414 196.8 621.094 196.94C620.794 197.08 620.484 197.15 620.164 197.15C619.784 197.15 619.404 197.05 619.024 196.85C618.644 196.63 618.324 196.32 618.064 195.92C617.804 195.5 617.614 194.99 617.494 194.39L617.734 185.21L616.234 183.41C617.254 182.81 618.324 182.43 619.444 182.27V195.32ZM613.834 197.21C613.714 197.23 613.604 197.24 613.504 197.24C613.424 197.24 613.334 197.24 613.234 197.24C612.314 197.24 611.464 197.05 610.684 196.67C609.924 196.29 609.204 195.7 608.524 194.9L610.234 194C611.374 195.02 612.584 195.53 613.864 195.53C615.144 195.53 616.424 195.02 617.704 194L617.734 194.57C617.154 195.19 616.534 195.72 615.874 196.16C615.234 196.58 614.554 196.93 613.834 197.21ZM608.524 194.9L608.794 185.21L607.264 183.41C608.324 182.81 609.394 182.43 610.474 182.27V194.51L608.524 194.9ZM623.456 197V196.46C623.736 196.32 624.046 196.2 624.386 196.1C624.726 195.98 625.146 195.88 625.646 195.8L625.916 185.21L624.416 183.41C625.356 182.83 626.356 182.45 627.416 182.27L627.626 185V195.86L629.996 196.46V197H623.456ZM632.426 197V196.46C632.706 196.32 633.016 196.2 633.356 196.1C633.696 195.98 634.116 195.88 634.616 195.8L634.886 185.48L636.686 184.76L636.596 185.09V195.86L638.966 196.46V197H632.426ZM634.886 185.48C633.806 184.5 632.626 184.01 631.346 184.01C630.046 184.01 628.746 184.53 627.446 185.57L627.416 185C628.016 184.38 628.636 183.86 629.276 183.44C629.916 183 630.586 182.64 631.286 182.36C631.406 182.36 631.516 182.36 631.616 182.36C631.716 182.34 631.806 182.33 631.886 182.33C632.826 182.33 633.686 182.53 634.466 182.93C635.266 183.31 636.006 183.92 636.686 184.76L634.886 185.48ZM641.396 197V196.46C641.676 196.32 641.986 196.2 642.326 196.1C642.666 195.98 643.086 195.88 643.586 195.8L643.856 185.48L645.566 184.61V195.86L647.936 196.46V197H641.396ZM643.856 185.48C642.776 184.5 641.596 184.01 640.316 184.01C639.016 184.01 637.716 184.53 636.416 185.57L636.386 185C636.986 184.38 637.606 183.86 638.246 183.44C638.886 183 639.556 182.64 640.256 182.36C640.376 182.36 640.486 182.36 640.586 182.36C640.686 182.34 640.776 182.33 640.856 182.33C641.776 182.33 642.626 182.52 643.406 182.9C644.186 183.26 644.906 183.83 645.566 184.61L643.856 185.48ZM655.63 197.21C654.45 197.21 653.4 196.91 652.48 196.31C651.58 195.71 650.88 194.87 650.38 193.79C649.88 192.69 649.63 191.43 649.63 190.01C649.63 188.53 649.89 187.21 650.41 186.05C650.95 184.89 651.7 183.98 652.66 183.32C653.62 182.66 654.73 182.33 655.99 182.33C657.01 182.33 657.9 182.56 658.66 183.02C659.44 183.46 660.04 184.07 660.46 184.85C660.9 185.63 661.12 186.54 661.12 187.58L661.03 189.5C659.95 189.68 658.89 189.83 657.85 189.95C656.83 190.05 655.75 190.13 654.61 190.19C653.47 190.23 652.16 190.26 650.68 190.28L650.71 189.05L659.32 188.96L659.38 187.58C659.38 186.44 659.05 185.52 658.39 184.82C657.73 184.1 656.86 183.74 655.78 183.74C655.3 183.74 654.8 183.82 654.28 183.98C653.76 184.14 653.27 184.36 652.81 184.64C652.37 185.4 652.03 186.22 651.79 187.1C651.55 187.96 651.43 188.83 651.43 189.71C651.43 191.61 651.88 193.07 652.78 194.09C653.7 195.11 654.93 195.62 656.47 195.62C657.83 195.62 659.32 195.23 660.94 194.45L661.09 194.81C660.27 195.61 659.39 196.21 658.45 196.61C657.53 197.01 656.59 197.21 655.63 197.21ZM664.679 197.03C664.439 196.81 664.229 196.55 664.049 196.25C663.869 195.93 663.729 195.6 663.629 195.26C663.869 195 664.149 194.78 664.469 194.6C664.789 194.42 665.119 194.3 665.459 194.24C665.699 194.46 665.909 194.74 666.089 195.08C666.289 195.4 666.409 195.72 666.449 196.04C666.249 196.28 665.989 196.5 665.669 196.7C665.349 196.88 665.019 196.99 664.679 197.03Z" fill="black"/>
</svg>
